<svg width="42" height="44" viewBox="0 0 42 44" fill="none" xmlns="http://www.w3.org/2000/svg">
<path d="M20.0271 39.3197C18.5266 38.1155 4.59253 24.5651 4.43678 24.417C3.82137 23.8015 3.43389 23.1633 3.32752 22.5783C3.21736 21.9705 3.4035 21.4387 3.89734 20.9448C4.357 20.4852 4.91923 20.2421 5.52324 20.2421C6.26021 20.2421 7.01618 20.5915 7.64678 21.2259L13.9642 27.2965C14.0744 27.4028 14.2187 27.456 14.3593 27.456C14.5075 27.456 14.6518 27.399 14.762 27.2889C14.9823 27.0685 14.9823 26.7114 14.7658 26.4911L4.6799 16.0747C3.66942 15.0643 3.19456 13.5181 4.39499 12.3177C4.85465 11.858 5.41687 11.6149 6.02089 11.6149C6.75786 11.6149 7.51382 11.9644 8.14443 12.5988L18.462 22.6581C18.5722 22.7645 18.7166 22.8215 18.8609 22.8215C19.0053 22.8215 19.1534 22.7645 19.2636 22.6543C19.4839 22.434 19.4877 22.0769 19.2674 21.8528L6.87562 9.14949C6.302 8.57587 5.95631 7.88828 5.89553 7.21969C5.83854 6.5397 6.07787 5.90909 6.59071 5.39625C7.05037 4.93659 7.61259 4.69347 8.21661 4.69347C8.95358 4.69347 9.70954 5.04296 10.3401 5.67357L22.9788 17.9969C23.089 18.1033 23.2334 18.1603 23.3777 18.1603C23.5221 18.1603 23.6702 18.1033 23.7804 17.9931C24.0007 17.7728 24.0045 17.4157 23.7842 17.1916L14.6062 7.75912C14.0288 7.1817 13.6831 6.49791 13.6261 5.82932C13.5691 5.14933 13.8085 4.51872 14.3213 4.00588C14.781 3.54623 15.3432 3.3031 15.9472 3.3031C16.6842 3.3031 17.4401 3.65259 18.0708 4.287C21.4365 7.59197 30.2232 16.2343 30.5195 16.5534C31.6477 17.3322 31.8757 16.1545 31.9327 15.391C31.9972 14.502 30.9792 11.3984 31.5718 8.60626C32.5671 4.89481 35.4352 5.50262 35.4998 5.53301C37.0725 6.26998 36.7724 7.37164 36.2139 9.58635L36.1569 10.0232C35.5719 12.9179 39.5911 21.4957 39.8874 22.1377C41.4639 25.587 43.2797 32.5806 37.2662 38.5942C30.6752 45.1851 22.5154 41.808 20.0271 39.3197Z" fill="url(#paint0_radial_511_402)"/>
<path d="M28.4833 43.0199C24.4413 43.0199 21.0034 41.0863 19.6472 39.7453C18.4278 38.75 10.7314 31.3195 4.46332 25.2376C4.2088 24.9907 4.06064 24.8501 4.04545 24.8312C3.33507 24.1208 2.8944 23.38 2.76904 22.681C2.62469 21.8871 2.87161 21.1691 3.49462 20.5423C4.06444 19.9725 4.76342 19.6723 5.52319 19.6723C6.41591 19.6723 7.31244 20.0826 8.04941 20.8234L14.3593 26.8863L4.26958 16.4699C3.10714 15.3075 2.52212 13.3815 3.99226 11.9152C4.56209 11.3453 5.26107 11.0452 6.02084 11.0452C6.91356 11.0452 7.81008 11.4555 8.54705 12.1963L18.8571 22.248L6.4691 9.54849C5.8081 8.88749 5.40163 8.07834 5.32945 7.27299C5.25727 6.41446 5.55358 5.6281 6.18798 4.9937C6.75781 4.42387 7.45679 4.12377 8.21656 4.12377C9.10548 4.12377 10.002 4.53024 10.7428 5.27101L23.3777 17.5906L14.1997 8.15812C13.5349 7.49332 13.1284 6.68417 13.0601 5.87882C12.9879 5.02409 13.2842 4.23773 13.9186 3.60333C14.4884 3.03351 15.1874 2.7334 15.9472 2.7334C16.8399 2.7334 17.7364 3.14367 18.4734 3.88444L21.2123 6.57021C26.0938 11.3567 30.1738 15.3645 30.6106 15.8127C30.8233 15.9837 31.1007 16.0483 31.2184 15.9913C31.2944 15.9533 31.378 15.7786 31.3628 15.4101C31.34 14.7643 31.2488 13.9627 31.1538 13.1156C30.9639 11.4137 30.7664 9.65105 31.0133 8.48862C31.5527 6.47144 32.6126 5.6167 33.4027 5.24822C34.4892 4.74677 35.5415 4.92152 35.7428 5.01649C37.7182 5.9434 37.3269 7.49332 36.7875 9.64346L36.7761 9.69664L36.7153 10.1411C36.3202 12.0861 38.3488 17.4614 40.3774 21.8415L40.4078 21.9023C41.764 24.8653 44.2066 32.4668 37.6726 39.0008C34.6678 41.998 31.416 43.0199 28.4833 43.0199ZM5.52319 20.812C5.07493 20.812 4.64946 20.9981 4.29997 21.3476C3.93908 21.7085 3.81372 22.058 3.8897 22.4759C3.97327 22.9355 4.31136 23.4826 4.8394 24.0144C4.8432 24.0182 4.99515 24.1664 5.25727 24.4171C14.1541 33.0518 19.5257 38.184 20.3842 38.8754L20.4298 38.9172C22.5267 41.0141 30.3181 44.737 36.8635 38.1916C42.8922 32.1629 40.6243 25.1237 39.3669 22.3733L39.3403 22.3163C38.0335 19.4976 35.0628 12.6597 35.5909 9.93217L35.6782 9.36234C36.2633 7.03746 36.2975 6.55122 35.306 6.07256C35.0135 6.01938 32.9165 5.76486 32.1149 8.75453C31.9136 9.70804 32.1074 11.4517 32.2783 12.9902C32.3771 13.8602 32.4682 14.6845 32.491 15.3721C32.529 16.4547 32.0162 16.8688 31.7047 17.0208C31.0703 17.3285 30.3143 17.0664 29.8433 16.6713L29.7939 16.6257C29.5621 16.375 24.05 10.9692 20.4032 7.39075L17.6604 4.69739C16.7259 3.75908 15.5217 3.60333 14.7125 4.41248C14.3175 4.80756 14.1389 5.27101 14.1807 5.78385C14.2263 6.31949 14.515 6.87791 14.9975 7.36036L24.1944 16.7928C24.6275 17.2335 24.6275 17.9553 24.1868 18.3959C23.7651 18.8176 23.0206 18.8252 22.5875 18.4073L9.94122 6.08016C9.00671 5.14565 7.79868 4.9899 6.99333 5.79905C6.59826 6.19413 6.41971 6.65758 6.4615 7.17042C6.51088 7.70606 6.79959 8.26828 7.27825 8.74314L19.6738 21.454C20.1107 21.8947 20.1069 22.6164 19.6662 23.0571C19.2445 23.4788 18.5 23.4864 18.0669 23.0685L7.7455 13.0054C6.81099 12.0633 5.60296 11.9114 4.79761 12.7205C3.81372 13.7044 4.33796 14.9238 5.08253 15.6722L15.176 26.0962C15.6091 26.5368 15.6053 27.2548 15.1646 27.6917C14.7391 28.1171 14.0022 28.1209 13.5691 27.7069L7.25165 21.6363C6.71982 21.1007 6.10821 20.812 5.52319 20.812Z" fill="#EDA600"/>
<path d="M29.6116 16.1851C27.5261 20.4435 27.7958 26.4039 30.926 31.1866C31.2793 31.8324 31.8833 31.5171 31.5756 30.8523C27.7958 22.7646 31.758 16.9372 31.758 16.9372L29.6116 16.1851Z" fill="#EDA600"/>
<path d="M21.4097 0.214783C22.5569 -0.0853238 23.7801 -0.0587319 24.9692 0.218582C26.1506 0.503494 27.332 1.10371 28.2096 2.0838C29.0681 3.0563 29.5961 4.23774 29.7747 5.47615C29.9418 6.70317 29.7861 7.96818 29.2049 9.01666C29.1365 7.83902 28.9313 6.75636 28.5856 5.75727C28.4071 5.25962 28.1982 4.78477 27.9436 4.33651C27.6929 3.89204 27.3966 3.45138 27.0813 3.09049C26.4393 2.34972 25.5694 1.7723 24.5931 1.32404C23.613 0.860583 22.5455 0.518689 21.4097 0.214783Z" fill="#B0BEC5"/>
<path d="M21.7251 3.81601C22.3595 3.41334 23.1535 3.32976 23.9018 3.46272C24.6578 3.59568 25.3796 3.97176 25.9494 4.4922C26.5154 5.02024 26.9181 5.68503 27.1688 6.37642C27.2904 6.72211 27.3512 7.0868 27.4081 7.44009C27.4271 7.80478 27.4271 8.16946 27.3701 8.53415C27.108 8.25684 26.9029 7.97952 26.7092 7.7098C26.485 7.45528 26.3103 7.18557 26.1089 6.93864C25.7139 6.4486 25.3302 6.00413 24.9161 5.60906C24.4906 5.22537 24.0424 4.88728 23.5219 4.59477C23.0053 4.29466 22.4241 4.04394 21.7251 3.81601Z" fill="#90A4AE"/>
<path d="M0.00726069 27.8854C0.542895 28.9339 1.10132 29.9064 1.75092 30.7649C2.39672 31.6234 3.13749 32.3528 3.99982 32.8276C4.41769 33.0594 4.91534 33.2607 5.40159 33.4127C5.89164 33.5684 6.40068 33.6748 6.92492 33.747C7.97339 33.8761 9.07505 33.8533 10.2413 33.6748C9.33717 34.4611 8.12914 34.879 6.89833 34.9702C5.65231 35.0538 4.3873 34.784 3.25525 34.1458C2.11561 33.4962 1.27987 32.463 0.755629 31.3651C0.231391 30.2596 -0.0497217 29.0706 0.00726069 27.8854Z" fill="#B0BEC5"/>
<path d="M3.59723 27.4409C3.96571 28.0791 4.3304 28.592 4.72928 29.0402C5.12435 29.4885 5.54982 29.857 6.01328 30.1913C6.48433 30.5142 7.00097 30.7991 7.5632 31.084C7.84431 31.2283 8.14442 31.3423 8.44073 31.5095C8.74843 31.6424 9.05993 31.783 9.38663 31.9843C9.04094 32.1135 8.68765 32.1894 8.32676 32.2464C7.96967 32.2616 7.60119 32.2806 7.2365 32.2312C6.50713 32.1325 5.77775 31.8779 5.13955 31.4335C4.51274 30.9814 3.9923 30.3546 3.70739 29.6442C3.41868 28.9377 3.33511 28.1475 3.59723 27.4409Z" fill="#90A4AE"/>
<defs>
<radialGradient id="paint0_radial_511_402" cx="0" cy="0" r="1" gradientUnits="userSpaceOnUse" gradientTransform="translate(14.1451 12.9407) rotate(-45) scale(34.5721)">
<stop offset="0.3533" stop-color="#FFCA28"/>
<stop offset="0.8723" stop-color="#FFB300"/>
</radialGradient>
</defs>
</svg>
