<svg width="9" height="9" viewBox="0 0 9 9" fill="none" xmlns="http://www.w3.org/2000/svg">
<path d="M4.64876 0.927734C4.10868 0.927734 3.57389 1.03411 3.07492 1.24079C2.57596 1.44747 2.12258 1.7504 1.74069 2.13229C0.969426 2.90356 0.536133 3.94962 0.536133 5.04036C0.536133 6.85814 1.71646 8.40037 3.34917 8.94735C3.5548 8.98025 3.6206 8.85276 3.6206 8.74172V8.04669C2.4814 8.29344 2.23876 7.49559 2.23876 7.49559C2.04958 7.01853 1.78226 6.89104 1.78226 6.89104C1.40801 6.63606 1.81105 6.64428 1.81105 6.64428C2.22231 6.67307 2.44028 7.06788 2.44028 7.06788C2.79808 7.693 3.40263 7.50793 3.63705 7.40923C3.67406 7.14191 3.78099 6.96095 3.89615 6.85814C2.98314 6.75532 2.0249 6.40164 2.0249 4.83473C2.0249 4.37823 2.18118 4.0122 2.4485 3.72021C2.40738 3.61739 2.26343 3.18968 2.48963 2.63447C2.48963 2.63447 2.83509 2.52343 3.6206 3.05396C3.9455 2.96348 4.29918 2.91824 4.64876 2.91824C4.99833 2.91824 5.35201 2.96348 5.67691 3.05396C6.46242 2.52343 6.80788 2.63447 6.80788 2.63447C7.03408 3.18968 6.89014 3.61739 6.84901 3.72021C7.11633 4.0122 7.27261 4.37823 7.27261 4.83473C7.27261 6.40575 6.31026 6.75121 5.39314 6.85402C5.5412 6.98152 5.67691 7.23239 5.67691 7.61486V8.74172C5.67691 8.85276 5.74271 8.98436 5.95246 8.94735C7.58517 8.39626 8.76138 6.85814 8.76138 5.04036C8.76138 4.50028 8.655 3.96549 8.44833 3.46652C8.24165 2.96756 7.93871 2.51419 7.55682 2.13229C7.17493 1.7504 6.72156 1.44747 6.22259 1.24079C5.72362 1.03411 5.18883 0.927734 4.64876 0.927734Z" fill="#483157"/>
</svg>
