<svg width="41" height="27" viewBox="0 0 41 27" fill="none" xmlns="http://www.w3.org/2000/svg">
<path d="M2.25 27H38.25C39.4875 27 40.5 25.9875 40.5 24.75C40.5 23.5125 39.4875 22.5 38.25 22.5H2.25C1.0125 22.5 0 23.5125 0 24.75C0 25.9875 1.0125 27 2.25 27ZM2.25 15.75H38.25C39.4875 15.75 40.5 14.7375 40.5 13.5C40.5 12.2625 39.4875 11.25 38.25 11.25H2.25C1.0125 11.25 0 12.2625 0 13.5C0 14.7375 1.0125 15.75 2.25 15.75ZM0 2.25C0 3.4875 1.0125 4.5 2.25 4.5H38.25C39.4875 4.5 40.5 3.4875 40.5 2.25C40.5 1.0125 39.4875 0 38.25 0H2.25C1.0125 0 0 1.0125 0 2.25Z" fill="white"/>
</svg>
