<svg width="28" height="28" viewBox="0 0 28 28" fill="none" xmlns="http://www.w3.org/2000/svg">
<path d="M5.37542 0.743829C5.54385 0.824813 5.68598 0.951718 5.78545 1.10993C5.88492 1.26815 5.93768 1.45124 5.93766 1.63812C5.93766 2.73614 6.35041 3.3685 6.86767 4.13843L6.90604 4.194C7.34525 4.84752 7.92204 5.70344 7.92204 6.92979C7.92204 8.18127 7.29101 9.28458 6.32925 9.93942C6.58192 10.1511 6.8055 10.4117 6.99864 10.7239C7.62835 11.7426 7.92204 13.2996 7.92204 15.5354C7.92204 17.8002 7.61777 20.5201 7.12167 22.6923C6.87561 23.7718 6.57002 24.768 6.20622 25.5154C6.03446 25.8873 5.80694 26.2309 5.53153 26.5341C5.25901 26.8132 4.83964 27.1109 4.28402 27.1109C3.72839 27.1109 3.30903 26.8132 3.03783 26.5341C2.76162 26.2315 2.53402 25.8878 2.36314 25.5154C1.99802 24.7667 1.69242 23.7718 1.44636 22.691C0.930354 20.3399 0.662101 17.9411 0.645997 15.534C0.645997 13.2983 0.939685 11.7426 1.56939 10.7239C1.74904 10.4282 1.97506 10.1634 2.23879 9.93942C1.74769 9.606 1.34574 9.15735 1.06808 8.63271C0.790416 8.10806 0.6455 7.52338 0.645997 6.92979C0.645997 6.44296 0.645997 5.60555 1.15267 4.52473C1.64877 3.46639 2.59201 2.25063 4.32503 0.862892C4.47109 0.746057 4.6472 0.672888 4.83305 0.651822C5.0189 0.630755 5.20692 0.662651 5.37542 0.743829ZM2.63037 6.92847C2.63037 7.36704 2.8046 7.78897 3.11471 8.09909C3.42483 8.40921 3.84544 8.58343 4.28402 8.58343C4.72259 8.58343 5.1432 8.40921 5.45332 8.09909C5.76344 7.78897 5.93766 7.36836 5.93766 6.92979C5.93766 6.34903 5.69292 5.94686 5.22064 5.24439L5.20477 5.22058C4.90182 4.77079 4.54331 4.23765 4.28931 3.5537C3.57097 4.28395 3.17409 4.88985 2.95052 5.3661C2.63037 6.04873 2.63037 6.53556 2.63037 6.92847ZM3.25743 11.7664C2.92935 12.2982 2.63037 13.3883 2.63037 15.5354C2.63037 17.6534 2.91877 20.2251 3.38047 22.2505C3.6133 23.2691 3.87788 24.096 4.14643 24.6463C4.19538 24.7482 4.24168 24.8328 4.28402 24.9043C4.32635 24.8328 4.37265 24.7482 4.4216 24.6463C4.69015 24.096 4.95474 23.2678 5.18757 22.2505C5.65059 20.2264 5.93766 17.6547 5.93766 15.5354C5.93766 13.3883 5.63868 12.2982 5.3106 11.7664C5.21166 11.5873 5.0621 11.4415 4.88065 11.347C4.69278 11.2652 4.48875 11.2272 4.28402 11.2359C4.01943 11.2359 3.83026 11.2769 3.68738 11.347C3.50594 11.4415 3.35638 11.5873 3.25743 11.7664ZM11.2293 17.7354C10.5285 17.6178 9.84671 17.406 9.20262 17.1057C9.24134 16.3553 9.25237 15.6039 9.23569 14.8527C9.83233 15.2536 10.5057 15.5486 11.2293 15.7126V11.8907C11.2293 11.3644 11.4384 10.8597 11.8105 10.4876C12.1827 10.1154 12.6874 9.90635 13.2137 9.90635H18.5054C18.5053 8.79602 18.1947 7.70783 17.6087 6.76474C17.0227 5.82164 16.1846 5.06123 15.1892 4.56941C14.1937 4.07759 13.0805 3.87398 11.9754 3.98157C10.8703 4.08915 9.8173 4.50366 8.93539 5.17825C8.67081 4.44667 8.29378 3.88708 8.03184 3.49814L7.97892 3.41877C9.16751 2.58089 10.5634 2.08565 12.0143 1.98709C13.4652 1.88854 14.9153 2.19046 16.2062 2.8599C17.4972 3.52935 18.5795 4.54058 19.3349 5.78322C20.0902 7.02585 20.4897 8.45213 20.4897 9.90635H25.12C25.6462 9.90635 26.151 10.1154 26.5231 10.4876C26.8953 10.8597 27.1043 11.3644 27.1043 11.8907V23.797C27.1043 24.3233 26.8953 24.828 26.5231 25.2001C26.151 25.5723 25.6462 25.7814 25.12 25.7814H13.2137C12.6874 25.7814 12.1827 25.5723 11.8105 25.2001C11.4384 24.828 11.2293 24.3233 11.2293 23.797V17.734V17.7354ZM13.2137 17.8187V23.7983H25.12V11.892H20.2384C19.8262 13.4862 18.9288 14.9128 17.6703 15.9746C16.4118 17.0364 14.8545 17.6808 13.2137 17.8187ZM18.1667 11.892H13.2137V15.8251C14.3252 15.7005 15.3792 15.2655 16.2551 14.57C17.131 13.8744 17.7935 12.9464 18.1667 11.892Z" fill="#242d42"/>
</svg>
