<svg width="128" height="128" viewBox="0 0 128 128" fill="none" xmlns="http://www.w3.org/2000/svg">
<path d="M3.76953 71.73L20.1095 55.63L47.9295 50.7L45.1795 65.26L7.56953 76.82L5.13953 75.7699L3.76953 71.73Z" fill="#CA2C31"/>
<path d="M22.9402 59.7599L5.2002 75.8799L18.2502 82.2399L38.0602 72.1299V67.3599L42.1102 56.4399L22.9402 59.7599Z" fill="#A02422"/>
<path d="M64.9198 88.15L56.3498 91.87L48.2598 109.02C48.2598 109.02 55.3798 124.79 55.6998 124.79C56.0198 124.79 60.0698 125.11 60.0698 125.11L74.4698 109.01L78.1098 81.51L64.9198 88.15Z" fill="#A02422"/>
<path d="M56.5002 100.84C56.5002 100.84 61.2702 99.87 64.6702 98.25C68.0702 96.63 72.2702 94.21 72.2702 94.21L70.7302 107.64L55.6802 124.77C55.6802 124.77 55.0902 124.04 52.5902 118.6C50.6002 114.26 49.9102 112.71 49.9102 112.71L56.5002 100.84Z" fill="#CA2C31"/>
<path d="M31.5804 80.6601C31.5804 80.6601 25.8404 80.1801 19.5504 88.1301C13.8104 95.3901 11.1204 107.21 10.0804 110.25C9.04035 113.29 6.55035 113.91 7.38035 115.3C8.21035 116.69 11.8004 116.61 16.2304 116.06C20.6604 115.51 24.4604 114.12 24.4604 114.12C24.4604 114.12 24.2704 114.6 23.6304 115.64C23.4004 116.01 22.6004 116.54 22.6604 117.09C22.8004 118.4 34.0204 118.43 42.9804 109.21C52.6604 99.2601 47.9604 91.1001 47.9604 91.1001L31.5804 80.6601Z" fill="#F7D74D"/>
<path d="M33.3096 85.29C33.3096 85.29 27.1196 85.62 21.9996 93.57C16.8796 101.52 14.4996 110.73 14.9896 111.35C15.4696 111.97 25.0096 108.52 27.2996 109.21C28.8696 109.69 28.0596 111.28 28.4796 111.7C28.8296 112.05 32.9696 112.64 39.6696 105.38C46.3796 98.12 44.7896 87.92 44.7896 87.92L33.3096 85.29Z" fill="#FBF0B4"/>
<path d="M36.3497 74.4399C36.3497 74.4399 33.2397 77.2099 32.1297 78.7999C31.0197 80.3899 31.0197 80.5299 31.0897 81.0099C31.1597 81.4899 32.3097 86.7599 37.0997 91.3799C42.9797 97.0499 48.2297 97.8099 48.9897 97.8099C49.7497 97.8099 54.7997 92.1399 54.7997 92.1399L36.3497 74.4399Z" fill="#858585"/>
<path d="M50.0996 91.2401C50.0996 91.2401 55.1396 94.5501 63.5896 91.7101C75.1396 87.8301 83.6096 79.1501 94.0996 68.1901C104.22 57.6101 112.71 44.48 112.71 44.48L106.76 24.55L50.0996 91.2401Z" fill="#437687"/>
<path d="M67.9902 80.33L69.3802 76.01L72.8602 76.5C72.8602 76.5 75.5102 77.75 77.4602 78.66C79.4102 79.57 81.9202 80.26 81.9202 80.26L76.9702 84.44C76.9702 84.44 74.2702 83.42 72.3002 82.56C70.0802 81.59 67.9902 80.33 67.9902 80.33Z" fill="#3F545F"/>
<path d="M84.3199 16.1399C84.3199 16.1399 74.6999 21.7199 60.9099 34.7699C48.4799 46.5299 39.2699 57.1699 37.0399 66.2199C35.1799 73.7999 36.1699 78.3999 40.3999 83.3699C44.8699 88.6299 50.1099 91.2399 50.1099 91.2399C50.1099 91.2399 54.0499 91.2999 70.4899 78.6499C90.9999 62.8599 107.43 36.4199 107.43 36.4199L84.3199 16.1399Z" fill="#8DAFBF"/>
<path d="M104.18 41.8401C104.18 41.8401 95.8099 38.2701 89.8399 29.9401C83.9099 21.6701 84.3799 16.0801 84.3799 16.0801C84.3799 16.0801 89.3399 12.1901 100.49 7.74007C107.99 4.75007 118.2 3.22007 121.56 5.71007C124.92 8.20007 119.26 20.6901 119.26 20.6901L108.95 40.6501L104.18 41.8401Z" fill="#D83F22"/>
<path d="M68.1698 80.4C68.1698 80.4 60.9398 76.71 56.3398 71.46C47.6398 61.55 45.8398 50.67 45.8398 50.67L50.2098 45.54C50.2098 45.54 51.2998 57.1 60.6298 67.09C66.7098 73.6 73.0598 76.58 73.0598 76.58C73.0598 76.58 71.7898 77.65 70.4298 78.69C69.5598 79.36 68.1698 80.4 68.1698 80.4Z" fill="#6896A5"/>
<path d="M112.71 44.48C112.71 44.48 117.05 39.25 121.16 27.46C126.9 11.02 121.9 6.04004 121.9 6.04004C121.9 6.04004 120.21 13.86 114.34 24.73C109.63 33.44 103.93 41.73 103.93 41.73C103.93 41.73 107.07 43.14 108.77 43.63C110.91 44.25 112.71 44.48 112.71 44.48Z" fill="#A02422"/>
<path d="M39.8097 69.6599C41.1097 70.8999 43.0797 69.5999 44.3697 66.5599C45.6697 63.5199 45.6497 61.8199 44.6497 61.0999C43.4097 60.1999 41.3297 62.1699 40.4197 63.9199C39.4197 65.8599 38.8297 68.7199 39.8097 69.6599Z" fill="#B3E1EE"/>
<path d="M84.9504 20.1299C84.9504 20.1299 77.3404 25.5999 69.2204 33.0399C61.7704 39.8699 56.8304 45.2099 56.1504 46.4499C55.4304 47.7799 55.4204 49.6599 55.9804 50.6199C56.5404 51.5799 57.7804 52.0799 58.9104 51.2399C60.0404 50.3899 68.0904 41.4899 75.3604 35.1299C82.0104 29.3099 87.1404 25.6199 87.1404 25.6199C87.1404 25.6199 89.2204 21.9399 88.8804 21.0999C88.5404 20.2499 84.9504 20.1299 84.9504 20.1299Z" fill="#B3E1EE"/>
<path d="M84.9502 20.1301C84.9502 20.1301 90.5702 15.8201 96.6902 12.7901C102.38 9.97005 108.04 7.62005 109.06 9.66005C110.03 11.6001 103.69 14.2401 98.1102 17.8001C92.5302 21.3601 87.1602 25.6101 87.1602 25.6101C87.1602 25.6101 86.3402 24.1101 85.8102 22.7201C85.2202 21.2101 84.9502 20.1301 84.9502 20.1301Z" fill="#ED6A65"/>
<path d="M89.5901 39.2499C84.0201 34.1199 76.2701 35.4999 72.4501 40.0599C68.5301 44.7599 68.8201 51.9399 73.4501 56.2599C77.6601 60.1799 85.4901 61.0699 90.2101 55.5699C94.4101 50.6899 94.1501 43.4399 89.5901 39.2499Z" fill="#E1E1E1"/>
<path d="M75.3303 41.8701C72.0203 45.1201 72.2003 51.5601 76.1403 54.5001C79.5803 57.0701 84.4603 56.9401 87.5203 53.8101C90.5803 50.6801 90.5803 44.9901 87.7103 42.0501C84.4103 38.6801 79.1203 38.1501 75.3303 41.8701Z" fill="#3F545F"/>
<path d="M49.9995 76.89C49.9995 76.89 56.1895 70.61 56.8695 71.29C57.5495 71.97 57.4595 75.78 54.4995 80.02C51.5295 84.26 44.9995 91.81 39.8295 96.9C34.7295 101.91 27.5395 107.64 26.8595 107.54C26.3295 107.46 24.1795 106.39 23.3195 105.35C22.4795 104.32 24.9895 99.45 25.9995 97.84C27.0195 96.23 49.9995 76.89 49.9995 76.89Z" fill="#A02524"/>
<path d="M21.2297 101.85C21.1497 103.29 23.3497 105.39 23.3497 105.39L56.8697 71.3001C56.8697 71.3001 55.2997 69.5301 50.6797 72.4001C46.0197 75.3001 41.9397 78.7801 35.9197 84.6101C27.5297 92.7501 21.3097 100.41 21.2297 101.85Z" fill="#CA2C31"/>
<path d="M19.06 36.9499C17.95 38.0599 17.9 39.8399 19.14 40.8599C20.24 41.7699 22.03 41.1799 22.7 40.3599C23.37 39.5399 23.29 37.7599 22.4 36.8799C21.51 35.9899 19.74 36.2799 19.06 36.9499Z" fill="white"/>
<path opacity="0.5" d="M41.0205 35.6501C40.1805 36.5801 40.4505 37.9601 41.2305 38.4701C42.0105 38.9801 43.1805 38.9301 43.7505 38.2301C44.2605 37.6001 44.3205 36.3401 43.5405 35.5601C42.8605 34.8901 41.5605 35.0501 41.0205 35.6501Z" fill="white"/>
<path d="M55.5504 11.89C55.5504 11.89 56.7704 8.40997 57.4904 8.36997C58.2204 8.32997 59.2704 11.85 59.2704 11.85C59.2704 11.85 62.8804 11.89 63.1204 12.42C63.4304 13.1 60.8104 15.38 60.8104 15.38C60.8104 15.38 61.6604 18.78 61.2604 19.19C60.8104 19.64 57.7004 17.85 57.7004 17.85C57.7004 17.85 54.5004 20.08 53.8104 19.47C53.2104 18.94 54.4604 15.34 54.4604 15.34C54.4604 15.34 51.4604 13.15 51.6204 12.54C51.8504 11.68 55.5504 11.89 55.5504 11.89Z" fill="white"/>
<path d="M97.0095 95.3299C98.2195 95.9999 99.7395 95.6199 100.3 94.3299C100.81 93.1799 99.8695 91.8099 99.0195 91.4399C98.1695 91.0699 96.6795 91.5599 96.1395 92.5299C95.6095 93.4899 96.2795 94.9299 97.0095 95.3299Z" fill="white"/>
<path d="M114.19 65.8401C113.5 64.7701 112.01 64.4201 111.04 65.2801C110.1 66.1201 110.33 67.4401 110.86 68.1101C111.39 68.7801 112.81 69.0301 113.67 68.4801C114.53 67.9301 114.61 66.4801 114.19 65.8401Z" fill="white"/>
</svg>
