<svg width="128" height="128" viewBox="0 0 128 128" fill="none" xmlns="http://www.w3.org/2000/svg">
<path d="M63.5996 118.8C35.6996 118.8 5.59961 101.3 5.59961 62.9C5.59961 24.5 35.6996 7 63.5996 7C79.0996 7 93.3996 12.1 104 21.4C115.5 31.6 121.6 46 121.6 62.9C121.6 79.8 115.5 94.1 104 104.3C93.3996 113.6 78.9996 118.8 63.5996 118.8Z" fill="url(#paint0_radial_702_808)"/>
<path d="M111.49 29.6699C116.82 38.2699 119.6 48.5099 119.6 59.8999C119.6 76.7999 113.5 91.0999 102 101.3C91.3999 110.6 76.9999 115.8 61.5999 115.8C43.5399 115.8 24.5999 108.45 13.4199 92.8599C24.1799 110.52 44.4199 118.8 63.5999 118.8C78.9999 118.8 93.3999 113.6 104 104.3C115.5 94.0999 121.6 79.7999 121.6 62.8999C121.6 50.1599 118.13 38.8399 111.49 29.6699Z" fill="#EB8F00"/>
<path d="M82.6504 33.6201C86.4604 33.6201 89.9104 39.2701 89.9104 48.6201C89.9104 57.9701 86.4604 63.6201 82.6504 63.6201C78.8504 63.6201 75.4004 57.9801 75.4004 48.6201C75.4004 39.2601 78.8504 33.6201 82.6504 33.6201Z" fill="#422B0D"/>
<path d="M45.2703 33.6201C41.2203 33.6201 37.5303 39.2701 37.5303 48.6201C37.5303 57.9701 41.2203 63.6201 45.2703 63.6201C49.3303 63.6201 53.0203 57.9801 53.0203 48.6201C53.0203 39.2601 49.3303 33.6201 45.2703 33.6201Z" fill="#422B0D"/>
<path d="M45.0503 37.2901C43.8403 36.5601 42.2703 36.9601 41.5403 38.1701C41.5203 38.2101 41.4903 38.2501 41.4703 38.2901C40.5503 39.3601 40.6603 40.9801 41.7303 41.9001C41.7603 41.9301 41.7904 41.9501 41.8304 41.9801C43.0304 42.7101 44.6003 42.3201 45.3303 41.1201C45.3603 41.0701 45.3803 41.0301 45.4103 40.9801C46.3303 39.9001 46.2103 38.2801 45.1303 37.3601C45.1003 37.3301 45.0803 37.3101 45.0503 37.2901Z" fill="#896024"/>
<path d="M83.21 37.2902C81.99 36.5702 80.41 36.9702 79.69 38.1902C79.67 38.2202 79.65 38.2602 79.63 38.2902C78.72 39.3802 78.87 40.9902 79.96 41.9002C79.97 41.9102 79.99 41.9202 80 41.9302C81.2 42.6602 82.77 42.2702 83.5 41.0702C83.53 41.0202 83.55 40.9802 83.58 40.9302C84.49 39.8402 84.34 38.2302 83.25 37.3202C83.24 37.3102 83.22 37.3002 83.21 37.2902Z" fill="#896024"/>
<path d="M102.07 71.62C100.67 69.09 97.6301 67.98 94.9301 69C84.6701 71.99 74.0301 73.48 63.3401 73.43C52.6501 73.48 42.0101 71.99 31.7501 69C29.0601 67.98 26.0201 69.08 24.6201 71.6C23.2601 74.11 24.2401 77.02 25.3901 79.53C31.8101 93.63 45.9601 102.07 63.2601 102.12H63.4201C80.7201 102.12 94.8701 93.63 101.3 79.53C102.44 77 103.43 74.13 102.07 71.62Z" fill="#422B0D"/>
<path d="M79.35 98.14C78.98 97.8 78.6 97.49 78.22 97.14C74.14 93.55 68.86 91.62 63.42 91.73C57.82 91.64 52.37 93.5 48 97C47.62 97.31 47.22 97.61 46.85 98C46.48 98.39 46.28 98.67 46.04 99C51.54 101.15 57.4 102.25 63.31 102.22H63.47C69.13 102.22 74.74 101.21 80.04 99.22C79.84 98.84 79.61 98.48 79.35 98.14Z" fill="#ED7770"/>
<path d="M94.9302 69.0001C84.6702 71.9901 74.0302 73.4801 63.3402 73.4301C52.6502 73.4801 42.0102 71.9901 31.7502 69.0001C29.0602 67.9801 26.0202 69.0801 24.6202 71.6001C24.4202 71.9801 24.2602 72.3801 24.1602 72.7901C24.4902 72.9601 24.8702 73.1301 25.3202 73.3101C37.3602 79.3401 50.6702 82.4001 64.1302 82.2401C77.0402 82.3901 89.8002 79.5801 101.46 74.0401C101.93 73.8401 102.32 73.6501 102.67 73.4701C102.59 72.8201 102.38 72.1801 102.07 71.6001C100.67 69.0801 97.6302 67.9701 94.9302 69.0001Z" fill="white"/>
<path d="M102.11 71.63C100.69 69.1 97.6401 67.98 94.9201 69C84.6601 71.99 74.0201 73.48 63.3401 73.43C52.6501 73.48 42.0101 71.99 31.7501 69C29.0601 67.98 26.0201 69.08 24.6201 71.6C23.2601 74.11 24.2401 77.02 25.3901 79.53C25.9001 80.66 26.4701 81.77 27.1001 82.84C27.1001 82.84 25.0001 75.06 26.8201 72.8C27.4401 71.84 28.4801 71.24 29.6201 71.18C30.0901 71.18 30.5501 71.26 31.0001 71.4C41.4401 74.47 52.2701 76.02 63.1601 76H63.5101C74.4001 76.02 85.2301 74.47 95.6701 71.4C96.1201 71.26 96.5801 71.18 97.0501 71.18C98.1901 71.24 99.2401 71.84 99.8601 72.8C101.71 75.06 99.5801 82.87 99.5801 82.87C100.2 81.8 100.82 80.7 101.34 79.56C102.48 77.05 103.47 74.15 102.11 71.63Z" fill="#EB8F00"/>
<defs>
<radialGradient id="paint0_radial_702_808" cx="0" cy="0" r="1" gradientUnits="userSpaceOnUse" gradientTransform="translate(63.5996 62.9) scale(56.9597 56.9597)">
<stop offset="0.5" stop-color="#FDE030"/>
<stop offset="0.92" stop-color="#F7C02B"/>
<stop offset="1" stop-color="#F4A223"/>
</radialGradient>
</defs>
</svg>
