<svg xmlns="http://www.w3.org/2000/svg" xmlns:xlink="http://www.w3.org/1999/xlink" width="500" zoomAndPan="magnify" viewBox="0 0 375 374.999991" height="500" preserveAspectRatio="xMidYMid meet" version="1.0"><defs><clipPath id="49c04fce66"><path d="M 167 16.84375 L 203 16.84375 L 203 94 L 167 94 Z M 167 16.84375 " clip-rule="nonzero"/></clipPath><clipPath id="8864f10ddd"><path d="M 274 167 L 350.59375 167 L 350.59375 203 L 274 203 Z M 274 167 " clip-rule="nonzero"/></clipPath><clipPath id="4a7792aa90"><path d="M 165 274 L 200 274 L 200 350.59375 L 165 350.59375 Z M 165 274 " clip-rule="nonzero"/></clipPath><clipPath id="2f7c72d64e"><path d="M 16.84375 164 L 93 164 L 93 200 L 16.84375 200 Z M 16.84375 164 " clip-rule="nonzero"/></clipPath></defs><g clip-path="url(#49c04fce66)"><path fill="#000000" d="M 184.609375 93.007812 C 174.988281 93.007812 167.1875 85.210938 167.1875 75.589844 L 167.1875 34.300781 C 167.1875 24.679688 174.988281 16.878906 184.609375 16.878906 C 194.230469 16.878906 202.027344 24.679688 202.027344 34.300781 L 202.027344 75.589844 C 202.027344 85.203125 194.230469 93.007812 184.609375 93.007812 Z M 184.609375 93.007812 " fill-opacity="1" fill-rule="nonzero"/></g><path fill="#000000" d="M 229.867188 105.636719 C 221.539062 100.820312 218.6875 90.171875 223.503906 81.835938 L 244.15625 46.089844 C 248.96875 37.761719 259.621094 34.910156 267.953125 39.722656 C 276.28125 44.539062 279.132812 55.1875 274.320312 63.523438 L 253.664062 99.269531 C 248.851562 107.597656 238.203125 110.441406 229.867188 105.636719 Z M 229.867188 105.636719 " fill-opacity="0.08" fill-rule="nonzero"/><path fill="#000000" d="M 262.742188 139.210938 C 257.9375 130.875 260.800781 120.226562 269.128906 115.417969 L 304.902344 94.792969 C 313.234375 89.988281 323.886719 92.855469 328.691406 101.183594 C 333.5 109.515625 330.632812 120.164062 322.304688 124.972656 L 286.535156 145.597656 C 278.199219 150.402344 267.550781 147.542969 262.742188 139.210938 Z M 262.742188 139.210938 " fill-opacity="0.16" fill-rule="nonzero"/><g clip-path="url(#8864f10ddd)"><path fill="#000000" d="M 274.414062 184.734375 C 274.421875 175.113281 282.226562 167.320312 291.847656 167.328125 L 333.136719 167.367188 C 342.757812 167.375 350.550781 175.179688 350.542969 184.800781 C 350.535156 194.421875 342.730469 202.210938 333.109375 202.203125 L 291.816406 202.167969 C 282.199219 202.160156 274.40625 194.355469 274.414062 184.734375 Z M 274.414062 184.734375 " fill-opacity="0.24" fill-rule="nonzero"/></g><path fill="#000000" d="M 261.742188 229.984375 C 266.566406 221.65625 277.222656 218.820312 285.542969 223.640625 L 321.269531 244.332031 C 329.59375 249.152344 332.433594 259.808594 327.609375 268.128906 C 322.789062 276.457031 312.132812 279.292969 303.8125 274.472656 L 268.085938 253.785156 C 259.765625 248.960938 256.921875 238.3125 261.742188 229.984375 Z M 261.742188 229.984375 " fill-opacity="0.32" fill-rule="nonzero"/><path fill="#000000" d="M 228.132812 262.832031 C 236.476562 258.03125 247.117188 260.90625 251.917969 269.246094 L 272.503906 305.03125 C 277.300781 313.375 274.429688 324.015625 266.085938 328.816406 C 257.746094 333.617188 247.101562 330.742188 242.304688 322.398438 L 221.722656 286.613281 C 216.925781 278.273438 219.796875 267.621094 228.132812 262.832031 Z M 228.132812 262.832031 " fill-opacity="0.4" fill-rule="nonzero"/><g clip-path="url(#4a7792aa90)"><path fill="#000000" d="M 182.601562 274.449219 C 192.222656 274.464844 200.003906 282.285156 199.984375 291.898438 L 199.902344 333.191406 C 199.886719 342.808594 192.066406 350.59375 182.453125 350.570312 C 172.832031 350.558594 165.050781 342.738281 165.074219 333.125 L 165.152344 291.832031 C 165.167969 282.21875 172.980469 274.4375 182.601562 274.449219 Z M 182.601562 274.449219 " fill-opacity="0.48" fill-rule="nonzero"/></g><path fill="#000000" d="M 137.363281 261.742188 C 145.683594 266.570312 148.515625 277.230469 143.683594 285.550781 L 122.964844 321.261719 C 118.136719 329.582031 107.480469 332.410156 99.160156 327.582031 C 90.839844 322.753906 88.011719 312.097656 92.839844 303.777344 L 113.558594 268.0625 C 118.378906 259.742188 129.042969 256.914062 137.363281 261.742188 Z M 137.363281 261.742188 " fill-opacity="0.56" fill-rule="nonzero"/><path fill="#000000" d="M 104.546875 228.105469 C 109.339844 236.445312 106.457031 247.09375 98.109375 251.878906 L 62.308594 272.429688 C 53.96875 277.222656 43.316406 274.339844 38.53125 265.992188 C 33.742188 257.648438 36.621094 247 44.972656 242.214844 L 80.777344 221.65625 C 89.113281 216.875 99.761719 219.753906 104.546875 228.105469 Z M 104.546875 228.105469 " fill-opacity="0.64" fill-rule="nonzero"/><g clip-path="url(#2f7c72d64e)"><path fill="#000000" d="M 92.964844 182.558594 C 92.933594 192.179688 85.113281 199.953125 75.496094 199.925781 L 34.203125 199.808594 C 24.589844 199.785156 16.8125 191.964844 16.84375 182.34375 C 16.875 172.722656 24.691406 164.949219 34.3125 164.976562 L 75.605469 165.09375 C 85.21875 165.117188 92.992188 172.9375 92.964844 182.558594 Z M 92.964844 182.558594 " fill-opacity="0.72" fill-rule="nonzero"/></g><path fill="#000000" d="M 105.722656 137.328125 C 100.886719 145.640625 90.222656 148.460938 81.910156 143.625 L 46.21875 122.871094 C 37.90625 118.035156 35.085938 107.371094 39.921875 99.058594 C 44.757812 90.746094 55.421875 87.921875 63.734375 92.757812 L 99.425781 113.515625 C 107.738281 118.351562 110.558594 129.015625 105.722656 137.328125 Z M 105.722656 137.328125 " fill-opacity="0.8" fill-rule="nonzero"/><path fill="#000000" d="M 139.394531 104.546875 C 131.042969 109.332031 120.402344 106.4375 115.625 98.085938 L 95.101562 62.257812 C 90.320312 53.910156 93.214844 43.265625 101.5625 38.488281 C 109.914062 33.703125 120.554688 36.601562 125.332031 44.949219 L 145.851562 80.777344 C 150.628906 89.121094 147.742188 99.769531 139.394531 104.546875 Z M 139.394531 104.546875 " fill-opacity="0.9" fill-rule="nonzero"/></svg>