<svg width="32" height="25" viewBox="0 0 32 25" fill="none" xmlns="http://www.w3.org/2000/svg">
<path d="M6.22387 14.9006L2.18648 20.4124C2.00436 20.7504 1.91896 21.1282 1.93887 21.5076C1.95878 21.8871 2.0833 22.2549 2.29989 22.5739C2.50419 22.8854 2.78842 23.1421 3.12575 23.3199C3.46309 23.4976 3.84239 23.5905 4.22786 23.5898H28.6337C29.0191 23.5905 29.3984 23.4976 29.7358 23.3199C30.0731 23.1421 30.3573 22.8854 30.5616 22.5739C30.7607 22.2453 30.8655 21.8726 30.8655 21.4931C30.8655 21.1137 30.7607 20.741 30.5616 20.4124L26.6376 14.9006M6.22387 14.9006V4.09313C6.22387 3.51987 6.46284 2.97008 6.88821 2.56473C7.31358 2.15937 7.8905 1.93164 8.49207 1.93164H24.3694C24.971 1.93164 25.5479 2.15937 25.9733 2.56473C26.3987 2.97008 26.6376 3.51987 26.6376 4.09313V14.9006M6.22387 14.9006H26.6376" stroke="#342C4F" stroke-width="2.16149" stroke-linecap="round" stroke-linejoin="round"/>
</svg>
