<svg width="33" height="32" viewBox="0 0 33 32" fill="none" xmlns="http://www.w3.org/2000/svg">
<mask id="mask0_518_458" style="mask-type:luminance" maskUnits="userSpaceOnUse" x="0" y="0" width="33" height="32">
<path d="M0.258301 0.869995H32.0121V31.13H0.258301V0.869995Z" fill="white"/>
</mask>
<g mask="url(#mask0_518_458)">
<path d="M4.61862 26.8457L13.0387 18.8217M23.6418 15.2536L21.1214 22.4592C21.0811 22.5747 21.0123 22.6793 20.9206 22.764C20.8289 22.8487 20.7172 22.9111 20.5948 22.9459L5.14388 27.3223C5.00468 27.3617 4.85681 27.3639 4.71635 27.3288C4.5759 27.2937 4.44825 27.2225 4.34729 27.1231C4.24633 27.0236 4.17593 26.8996 4.14376 26.7647C4.11158 26.6298 4.11886 26.489 4.1648 26.3577L9.18191 12.017C9.21787 11.9141 9.27665 11.8197 9.35427 11.7403C9.43189 11.6609 9.52652 11.5983 9.63176 11.5568L16.7592 8.76029C16.9041 8.70326 17.0634 8.68839 17.2172 8.71756C17.371 8.74673 17.5122 8.81863 17.6231 8.9242L23.45 14.4782C23.5545 14.5776 23.6278 14.7029 23.6617 14.8399C23.6956 14.9768 23.6887 15.1201 23.6418 15.2536Z" stroke="#4597bd" stroke-width="1.89125" stroke-linecap="round" stroke-linejoin="round"/>
<path d="M23.7984 14.8098L27.5401 11.2429C28.0362 10.77 28.3149 10.1287 28.3149 9.46006C28.3149 8.79141 28.0362 8.15013 27.5401 7.67725L24.7352 5.00176C24.4894 4.76749 24.1977 4.58166 23.8766 4.45487C23.5555 4.32808 23.2113 4.26282 22.8637 4.26282C22.5161 4.26282 22.1719 4.32808 21.8508 4.45487C21.5297 4.58166 21.2379 4.76749 20.9922 5.00176L17.2505 8.56866M15.8454 16.1463C15.6611 15.9707 15.4422 15.8314 15.2014 15.7364C14.9606 15.6414 14.7025 15.5925 14.4418 15.5926C14.1812 15.5927 13.9231 15.6416 13.6823 15.7367C13.4415 15.8318 13.2228 15.9712 13.0385 16.1469C12.8543 16.3226 12.7081 16.5311 12.6084 16.7606C12.5087 16.9901 12.4575 17.2361 12.4575 17.4845C12.4576 17.7328 12.509 17.9788 12.6088 18.2082C12.7086 18.4377 12.8548 18.6462 13.0392 18.8218C13.4115 19.1764 13.9164 19.3755 14.4428 19.3754C14.9692 19.3753 15.474 19.1759 15.8461 18.8211C16.2182 18.4663 16.4272 17.9852 16.4271 17.4836C16.427 16.9819 16.2177 16.5009 15.8454 16.1463Z" stroke="#4597bd" stroke-width="1.89125" stroke-linecap="round" stroke-linejoin="round"/>
</g>
</svg>
