<svg width="30" height="28" viewBox="0 0 30 28" fill="none" xmlns="http://www.w3.org/2000/svg">
<path d="M28.3663 26.6083H1.90479M25.7202 26.6083V12.7391M4.55094 26.6083V12.7391" stroke="#232f35" stroke-width="1.89125" stroke-linecap="round"/>
<path d="M21.1257 1.3916H9.14388C7.55221 1.3916 6.75704 1.3916 6.118 1.76859C5.47763 2.14432 5.12172 2.82265 4.41123 4.1793L2.55231 8.654C2.12363 9.68788 1.74787 10.9058 2.47027 11.7796C2.81059 12.1919 3.27738 12.4928 3.80562 12.6404C4.33385 12.788 4.89725 12.775 5.41733 12.6031C5.9374 12.4312 6.38828 12.109 6.70715 11.6814C7.02602 11.2537 7.19701 10.742 7.19631 10.2174C7.19631 10.8862 7.4751 11.5276 7.97135 12.0005C8.4676 12.4734 9.14066 12.7391 9.84246 12.7391C10.5443 12.7391 11.2173 12.4734 11.7136 12.0005C12.2098 11.5276 12.4886 10.8862 12.4886 10.2174C12.4886 10.8862 12.7674 11.5276 13.2637 12.0005C13.7599 12.4734 14.433 12.7391 15.1348 12.7391C15.8366 12.7391 16.5096 12.4734 17.0059 12.0005C17.5021 11.5276 17.7809 10.8862 17.7809 10.2174C17.7809 10.8862 18.0597 11.5276 18.556 12.0005C19.0522 12.4734 19.7253 12.7391 20.4271 12.7391C21.1289 12.7391 21.8019 12.4734 22.2982 12.0005C22.7944 11.5276 23.0732 10.8862 23.0732 10.2174C23.0732 10.7416 23.2445 11.2528 23.5634 11.6798C23.8823 12.1069 24.3329 12.4286 24.8526 12.6003C25.3723 12.772 25.9352 12.7851 26.4631 12.6378C26.991 12.4905 27.4575 12.1901 27.7979 11.7783C28.5203 10.9046 28.1446 9.68662 27.7159 8.65274L25.8583 4.1793C25.1478 2.82265 24.7919 2.14432 24.1515 1.76859C23.5125 1.3916 22.7173 1.3916 21.1257 1.3916Z" stroke="#232f35" stroke-width="1.89125" stroke-linejoin="round"/>
<path d="M11.8276 25.9778V22.1953C11.8276 21.0164 11.8276 20.4276 12.0936 19.9888C12.2678 19.7014 12.5183 19.4626 12.8199 19.2966C13.2804 19.0432 13.8983 19.0432 15.1353 19.0432C16.3724 19.0432 16.9903 19.0432 17.4507 19.2966C17.7524 19.4626 18.0029 19.7014 18.1771 19.9888C18.443 20.4276 18.443 21.0164 18.443 22.1953V25.9778" stroke="#232f35" stroke-width="1.89125" stroke-linecap="round"/>
</svg>
