<svg width="32" height="32" viewBox="0 0 32 32" fill="none" xmlns="http://www.w3.org/2000/svg">
<rect width="32" height="32" rx="16" fill="url(#paint0_linear_975_808)"/>
<path d="M8.14033 26.2405L8.11816 26.41H8.28906C8.59809 26.41 8.85888 26.2341 9.07316 25.9377C9.28594 25.6435 9.46626 25.2139 9.61961 24.6605C9.73256 24.2736 9.91883 23.8839 10.1807 23.4911C10.4262 23.1229 10.7239 22.8988 11.0732 22.8037C11.0967 22.8167 11.1318 22.8392 11.1802 22.8737L11.1798 22.8743L11.1918 22.8812C11.5635 23.0981 11.9681 23.5437 12.4009 24.2426C12.5701 24.5302 12.7166 24.7548 12.84 24.9134L12.8484 24.9242L12.8585 24.9333C13.9681 25.9233 15.0623 26.4352 16.1386 26.4352C16.4717 26.4352 16.7965 26.3914 17.1126 26.3036L17.1126 26.3036L17.1149 26.3029C18.464 25.9051 19.6419 25.0331 20.65 23.7003L20.6505 23.6996C21.6536 22.3564 22.4348 20.8275 22.9947 19.114C23.5705 17.4034 23.8605 15.8391 23.8605 14.4226V14.4222V14.4218V14.4214V14.421V14.4206V14.4202V14.4198V14.4194V14.419V14.4186V14.4182V14.4178V14.4174V14.417V14.4166V14.4162V14.4158V14.4154V14.415V14.4146V14.4142V14.4138V14.4134V14.413V14.4126V14.4122V14.4118V14.4114V14.411V14.4106V14.4102V14.4098V14.4094V14.409V14.4086V14.4082V14.4078V14.4074V14.407V14.4066V14.4062V14.4058V14.4054V14.405V14.4046V14.4042V14.4038V14.4034V14.403V14.4026V14.4022V14.4018V14.4014V14.401V14.4006V14.4002V14.3998V14.3994V14.399V14.3985V14.3981V14.3977V14.3973V14.3969V14.3965V14.3961V14.3957V14.3953V14.3949V14.3945V14.3941V14.3937V14.3933V14.3928V14.3924V14.392V14.3916V14.3912V14.3908V14.3904V14.39V14.3896V14.3892V14.3887V14.3883V14.3879V14.3875V14.3871V14.3867V14.3863V14.3859V14.3855V14.385V14.3846V14.3842V14.3838V14.3834V14.383V14.3826V14.3822V14.3817V14.3813V14.3809V14.3805V14.3801V14.3797V14.3793V14.3788V14.3784V14.378V14.3776V14.3772V14.3768V14.3763V14.3759V14.3755V14.3751V14.3747V14.3743V14.3738V14.3734V14.373V14.3726V14.3722V14.3718V14.3713V14.3709V14.3705V14.3701V14.3697V14.3692V14.3688V14.3684V14.368V14.3676V14.3671V14.3667V14.3663V14.3659V14.3655V14.365V14.3646V14.3642V14.3638V14.3633V14.3629V14.3625V14.3621V14.3617V14.3612V14.3608V14.3604V14.36V14.3595V14.3591V14.3587V14.3583V14.3578V14.3574V14.357V14.3566V14.3561V14.3557V14.3553V14.3549V14.3544V14.354V14.3536V14.3532V14.3527V14.3523V14.3519V14.3514V14.351V14.3506V14.3502V14.3497V14.3493V14.3489V14.3484V14.348V14.3476V14.3472V14.3467V14.3463V14.3459V14.3454V14.345V14.3446V14.3441V14.3437V14.3433V14.3429V14.3424V14.342V14.3416V14.3411V14.3407V14.3403V14.3398V14.3394V14.339V14.3385V14.3381V14.3377V14.3372V14.3368V14.3364V14.3359V14.3355V14.3351V14.3346V14.3342V14.3338V14.3333V14.3329V14.3324V14.332V14.3316V14.3311V14.3307V14.3303V14.3298V14.3294V14.3289V14.3285V14.3281V14.3276V14.3272V14.3268V14.3263V14.3259V14.3254V14.325V14.3246V14.3241V14.3237V14.3232V14.3228V14.3224V14.3219V14.3215V14.321V14.3206V14.3202V14.3197V14.3193V14.3188V14.3184V14.3179V14.3175V14.3171V14.3166V14.3162V14.3157V14.3153V14.3148V14.3144V14.314V14.3135V14.3131V14.3126V14.3122V14.3117V14.3113V14.3108V14.3104V14.3099V14.3095V14.3091V14.3086V14.3082V14.3077V14.3073V14.3068V14.3064V14.3059V14.3055V14.305V14.3046V14.3041V14.3037V14.3032V14.3028V14.3023V14.3019V14.3014V14.301V14.3005V14.3001V14.2996V14.2992V14.2987V14.2983V14.2978V14.2974V14.2969V14.2965V14.296V14.2956V14.2951V14.2947V14.2942V14.2938V14.2933V14.2929V14.2924V14.292V14.2915V14.291V14.2906V14.2901V14.2897V14.2892V14.2888V14.2883V14.2879V14.2874V14.287V14.2865V14.286V14.2856V14.2851V14.2847V14.2842V14.2838V14.2833V14.2828V14.2824V14.2819V14.2815V14.281V14.2806V14.2801V14.2796V14.2792V14.2787V14.2783V14.2778V14.2773V14.2769V14.2764V14.276V14.2755V14.275V14.2746V14.2741V14.2737V14.2732V14.2727V14.2723V14.2718V14.2713V14.2709V14.2704V14.27V14.2695V14.269V14.2686V14.2681V14.2676V14.2672V14.2667V14.2662V14.2658V14.2653V14.2649V14.2644V14.2639V14.2635V14.263V14.2625V14.2621V14.2616V14.2611V14.2607V14.2602V14.2597V14.2593V14.2588V14.2583V14.2579V14.2574V14.2569V14.2565V14.256V14.2555V14.255V14.2546V14.2541V14.2536V14.2532V14.2527V14.2522V14.2518V14.2513V14.2508V14.2503V14.2499V14.2494V14.2489V14.2485V14.248V14.2475V14.247V14.2466V14.2461V14.2456V14.2452V14.2447V14.2442V14.2437V14.2433V14.2428V14.2423V14.2418V14.2414V14.2409V14.2404V14.2399V14.2395V14.239V14.2385V14.238V14.2376V14.2371V14.2366V14.2361V14.2357V14.2352V14.2347V14.2342V14.2337V14.2333V14.2328V14.2323V14.2318V14.2313V14.2309V14.2304V14.2299V14.2294V14.229V14.2285V14.228V14.2275V14.227V14.2266V14.2261V14.2256V14.2251V14.2246V14.2241V14.2237V14.2232V14.2227V14.2222V14.2217V14.2213V14.2208V14.2203V14.2198V14.2193V14.2188V14.2184V14.2179V14.2174V14.2169V14.2164V14.2159V14.2154V14.215V14.2145V14.214V14.2135V14.213V14.2125V14.212V14.2116V14.2111V14.2106V14.2101V14.2096V14.2091V14.2086V14.2081V14.2077V14.2072V14.2067V14.2062V14.2057V14.2052V14.2047V14.2042V14.2038V14.2033V14.2028V14.2023V14.2018V14.2013V14.2008V14.2003V14.1998V14.1993V14.1988V14.1984V14.1979V14.1974V14.1969V14.1964V14.1959V14.1954C23.8605 12.3361 23.4083 10.488 22.5075 8.65229L22.507 8.65129C22.0592 7.7557 21.4382 7.02191 20.6445 6.4522C19.864 5.86293 19.0172 5.56484 18.1073 5.56484C17.2014 5.56484 16.4032 5.82693 15.7193 6.35297C15.0598 6.85628 14.5405 7.50641 14.1608 8.3003L14.1602 8.3015C13.4285 9.8671 13.0608 11.4283 13.0608 12.9839C13.0608 14.7366 13.4097 16.2199 14.1162 17.4262L14.1167 17.427C14.5012 18.0737 15.0347 18.5805 15.7142 18.9463L15.7141 18.9464L15.7168 18.9477C16.3989 19.2976 17.2145 19.4691 18.1578 19.4691C19.1148 19.4691 19.9513 19.3238 20.6635 19.0286L20.6635 19.0286L20.6651 19.0279C21.3149 18.7494 21.9667 18.3141 22.6209 17.7262C22.5741 18.5471 22.2423 19.5492 21.6094 20.7377C20.9275 22.0185 20.0545 23.1492 18.9901 24.1305C17.9422 25.0952 16.9928 25.5547 16.1386 25.5547C15.6045 25.5547 15.1168 25.3754 14.6712 25.0101C14.2287 24.6165 13.8787 24.2006 13.6191 23.7632C13.3581 23.277 13.0029 22.8358 12.5553 22.4394C12.1119 22.0146 11.6141 21.794 11.0654 21.794C10.8901 21.794 10.6702 21.8419 10.4122 21.9279C10.3461 21.9499 10.2677 21.9903 10.1806 22.0425L10.174 22.0465L10.1678 22.0512C10.107 22.0967 10.0557 22.1384 10.0164 22.1757C9.96855 22.2036 9.90651 22.25 9.83594 22.3064C9.75149 22.374 9.68692 22.4289 9.6469 22.4689L9.59124 22.5246C9.99869 18.7542 10.4218 15.2276 10.8606 11.9446C10.962 11.252 11.0135 10.6889 11.0135 10.258V10.108H10.8635H10.3587H10.228L10.2101 10.2375L10.1105 10.9599C10.0906 11.0363 10.0715 11.1737 10.0518 11.359C10.0306 11.5581 10.0075 11.8256 9.98229 12.1609L8.14033 26.2405ZM18.3469 18.4629L18.347 18.4624H18.3345C16.8393 18.4624 15.7635 17.9718 15.0748 17.0113C14.3899 16.0325 14.0423 14.7944 14.0423 13.2868C14.0423 11.76 14.3575 10.2658 14.9891 8.80308C15.2998 8.08364 15.7396 7.49824 16.308 7.04348L16.3081 7.0435L16.31 7.04185C16.8687 6.57894 17.5034 6.34739 18.2196 6.34443C18.7308 6.44234 19.22 6.6514 19.688 6.97412L19.6892 6.97494C20.9481 7.82511 21.8569 9.19593 22.4053 11.107L22.4056 11.1079C22.6882 12.0723 22.8286 12.9834 22.8286 13.842C22.8286 14.698 22.6724 15.5028 22.3607 16.2577C22.042 17.0091 21.5988 17.5637 21.0352 17.9315C20.4712 18.2995 19.7755 18.4876 18.9402 18.4876C18.7425 18.4876 18.5447 18.4794 18.3469 18.4629Z" fill="white" stroke="white" stroke-width="0.3"/>
<defs>
<linearGradient id="paint0_linear_975_808" x1="2.90909" y1="25.3091" x2="32" y2="16" gradientUnits="userSpaceOnUse">
<stop offset="0.145833" stop-color="#D873B1"/>
<stop offset="0.734364" stop-color="#996AF4"/>
</linearGradient>
</defs>
</svg>
