<svg width="32" height="32" viewBox="0 0 32 32" fill="none" xmlns="http://www.w3.org/2000/svg">
<g clip-path="url(#clip0_278_34)">
<circle cx="16" cy="16" r="16" fill="#290552"/>
<g filter="url(#filter0_f_278_34)">
<circle cx="16.2627" cy="15.7207" r="12.7207" fill="#FF6D91"/>
</g>
<path d="M16.4189 10.4805V10.4805C16.5135 13.2943 18.7726 15.5533 21.5864 15.6479V15.6479V15.6479C18.7726 15.7425 16.5135 18.0016 16.4189 20.8154V20.8154V20.8154C16.3243 18.0016 14.0653 15.7425 11.2515 15.6479V15.6479V15.6479C14.0653 15.5533 16.3243 13.2943 16.4189 10.4805V10.4805Z" fill="#FEDAE3"/>
<path d="M21.048 20.3279C18.5615 22.7631 15.8121 24.4264 13.3944 25.1609C10.9525 25.9027 8.9819 25.6666 7.87318 24.5345C6.76446 23.4024 6.56944 21.4274 7.36201 19.0014C8.14673 16.5996 9.86693 13.8854 12.3534 11.4502C14.8399 9.01495 17.5894 7.35168 20.0071 6.61718C22.449 5.87532 24.4196 6.11145 25.5283 7.24352C26.637 8.37559 26.832 10.3507 26.0394 12.7766C25.2547 15.1785 23.5345 17.8927 21.048 20.3279Z" stroke="#E0CFCF" stroke-width="0.918719"/>
<path d="M20.1705 11.5632C22.5806 14.074 24.2163 16.84 24.9265 19.2649C25.6438 21.7142 25.388 23.6823 24.2448 24.7796C23.1017 25.8769 21.1248 26.0521 18.7069 25.2353C16.313 24.4265 13.6162 22.6792 11.2061 20.1684C8.7959 17.6576 7.16027 14.8916 6.45004 12.4667C5.7327 10.0175 5.98858 8.04936 7.1317 6.95204C8.27483 5.85472 10.2518 5.67951 12.6696 6.49636C15.0635 7.30512 17.7603 9.05244 20.1705 11.5632Z" stroke="#E0CFCF" stroke-width="0.918719"/>
</g>
<defs>
<filter id="filter0_f_278_34" x="-1.45801" y="-2" width="35.4414" height="35.4415" filterUnits="userSpaceOnUse" color-interpolation-filters="sRGB">
<feFlood flood-opacity="0" result="BackgroundImageFix"/>
<feBlend mode="normal" in="SourceGraphic" in2="BackgroundImageFix" result="shape"/>
<feGaussianBlur stdDeviation="2.5" result="effect1_foregroundBlur_278_34"/>
</filter>
<clipPath id="clip0_278_34">
<rect width="32" height="32" fill="white"/>
</clipPath>
</defs>
</svg>
