<svg width="32" height="28" viewBox="0 0 32 28" fill="none" xmlns="http://www.w3.org/2000/svg">
<path d="M13.7632 2.63079C8.31081 5.9089 5.58532 9.85953 5.58532 14.4775C5.58532 15.9149 5.85261 16.633 6.38441 16.633L6.93283 16.4938C7.36492 16.3377 7.71253 16.2596 7.97982 16.2596C9.54061 16.2596 10.8466 16.793 11.8922 17.8597C12.9392 18.9264 13.4627 20.2402 13.4627 21.809C13.4627 23.3141 12.8948 24.5928 11.7661 25.6426C10.6361 26.6923 9.27332 27.2166 7.67791 27.2166C5.45098 27.2166 3.61322 26.358 2.16599 24.637C0.721535 22.9199 0 20.7605 0 18.1628C0 15.2229 0.612128 12.5341 1.84192 10.0937C3.07449 7.65462 4.94965 5.4497 7.47571 3.47894C10.0018 1.50947 11.6138 0.523438 12.3118 0.523438C12.7771 0.523438 13.1594 0.734173 13.4585 1.15564C13.7576 1.57581 13.9072 1.94265 13.9072 2.25485L13.759 2.62949L13.7632 2.63079ZM31.7115 2.63079C26.2592 5.9089 23.5351 9.85823 23.5351 14.4788C23.5351 15.9162 23.8024 16.6343 24.3342 16.6343L24.8826 16.4951C25.3147 16.339 25.6623 16.2609 25.9296 16.2609C27.4571 16.2609 28.7548 16.7943 29.817 17.861C30.8834 18.9277 31.4124 20.2415 31.4124 21.8103C31.4124 23.3154 30.8446 24.5941 29.7159 25.6439C28.5858 26.6936 27.2231 27.2179 25.6277 27.2179C23.4007 27.2179 21.563 26.3593 20.1157 24.6383C18.6713 22.9212 17.9497 20.7618 17.9497 18.1641C17.9497 15.193 18.5702 12.4794 19.8194 10.026C21.0658 7.57136 22.9423 5.37295 25.4518 3.43471C27.9654 1.49516 29.5677 0.524739 30.2643 0.524739C30.731 0.524739 31.1133 0.735474 31.4138 1.15694C31.7115 1.57842 31.8611 1.94525 31.8611 2.25745L31.7115 2.63079Z" fill="url(#paint0_linear_1066_245)"/>
<defs>
<linearGradient id="paint0_linear_1066_245" x1="31.8611" y1="0.523438" x2="5.57912" y2="31.8923" gradientUnits="userSpaceOnUse">
<stop stop-color="#0894FF"/>
<stop offset="1" stop-color="#98D2FF" stop-opacity="0.92"/>
</linearGradient>
</defs>
</svg>
