<svg width="32" height="29" viewBox="0 0 32 29" fill="none" xmlns="http://www.w3.org/2000/svg">
<path d="M18.0981 25.9096C23.5505 22.5258 26.276 18.4477 26.276 13.6808C26.276 12.197 26.0087 11.4558 25.4769 11.4558L24.9285 11.5994C24.4964 11.7606 24.1488 11.8411 23.8815 11.8411C22.3207 11.8411 21.0148 11.2906 19.9692 10.1895C18.9222 9.0884 18.3987 7.73217 18.3987 6.11276C18.3987 4.55914 18.9665 3.23917 20.0952 2.15553C21.2253 1.0719 22.588 0.530748 24.1834 0.530748C26.4103 0.530748 28.2481 1.41699 29.6953 3.19352C31.1398 4.96601 31.8613 7.19506 31.8613 9.87662C31.8613 12.9113 31.2492 15.6869 30.0194 18.206C28.7868 20.7237 26.9117 22.9998 24.3856 25.0341C21.8595 27.0671 20.2475 28.085 19.5495 28.085C19.0842 28.085 18.702 27.8674 18.4028 27.4324C18.1037 26.9986 17.9541 26.62 17.9541 26.2977L18.1023 25.911L18.0981 25.9096ZM0.149786 25.9096C5.60215 22.5258 8.32626 18.449 8.32626 13.6794C8.32626 12.1956 8.05898 11.4544 7.52717 11.4544L6.97875 11.5981C6.54666 11.7592 6.19905 11.8398 5.93176 11.8398C4.40421 11.8398 3.10656 11.2892 2.04434 10.1882C0.97796 9.08706 0.448925 7.73083 0.448925 6.11142C0.448925 4.5578 1.01674 3.23783 2.14543 2.15419C3.27552 1.07055 4.63826 0.529406 6.23367 0.529406C8.4606 0.529406 10.2984 1.41565 11.7456 3.19217C13.19 4.96467 13.9116 7.19371 13.9116 9.87528C13.9116 12.9422 13.2911 15.7433 12.042 18.2758C10.7955 20.8097 8.919 23.079 6.40956 25.0798C3.89595 27.0819 2.29362 28.0836 1.59701 28.0836C1.1303 28.0836 0.748065 27.8661 0.44754 27.431C0.149786 26.996 0.000217438 26.6173 0.000217438 26.295L0.149786 25.9096Z" fill="url(#paint0_linear_1066_246)"/>
<defs>
<linearGradient id="paint0_linear_1066_246" x1="0.000217438" y1="28.085" x2="27.2679" y2="-3.44329" gradientUnits="userSpaceOnUse">
<stop stop-color="#0894FF"/>
<stop offset="1" stop-color="#98D2FF" stop-opacity="0.92"/>
</linearGradient>
</defs>
</svg>
