<svg width="727" height="569" viewBox="0 0 727 569" fill="none" xmlns="http://www.w3.org/2000/svg">
<rect x="249" y="2" width="270" height="270" rx="135" fill="#D7D6F0" fill-opacity="0.49"/>
<path d="M295.758 148V125.222H309.505V127.669H298.517V135.365H308.793V137.812H298.517V145.553H309.683V148H295.758ZM314.121 148V130.916H316.657V133.586H316.879C317.235 132.674 317.81 131.966 318.603 131.461C319.397 130.95 320.349 130.694 321.462 130.694C322.589 130.694 323.527 130.95 324.276 131.461C325.032 131.966 325.621 132.674 326.044 133.586H326.222C326.659 132.703 327.316 132.003 328.191 131.484C329.065 130.957 330.115 130.694 331.338 130.694C332.866 130.694 334.115 131.172 335.086 132.129C336.058 133.078 336.543 134.557 336.543 136.566V148H333.918V136.566C333.918 135.306 333.574 134.405 332.884 133.864C332.194 133.322 331.383 133.052 330.448 133.052C329.247 133.052 328.317 133.415 327.657 134.142C326.997 134.861 326.667 135.773 326.667 136.878V148H323.997V136.299C323.997 135.328 323.682 134.546 323.052 133.953C322.422 133.352 321.61 133.052 320.616 133.052C319.934 133.052 319.296 133.233 318.703 133.597C318.118 133.96 317.643 134.464 317.28 135.109C316.924 135.747 316.746 136.485 316.746 137.323V148H314.121ZM341.342 154.406V130.916H343.878V133.63H344.19C344.383 133.334 344.649 132.955 344.991 132.496C345.339 132.029 345.836 131.613 346.481 131.25C347.133 130.879 348.016 130.694 349.128 130.694C350.566 130.694 351.834 131.054 352.932 131.773C354.029 132.492 354.886 133.512 355.501 134.831C356.116 136.151 356.424 137.708 356.424 139.503C356.424 141.312 356.116 142.88 355.501 144.207C354.886 145.527 354.033 146.55 352.943 147.277C351.853 147.996 350.596 148.356 349.172 148.356C348.075 148.356 347.196 148.174 346.537 147.811C345.877 147.44 345.369 147.021 345.013 146.554C344.657 146.08 344.383 145.687 344.19 145.375H343.967V154.406H341.342ZM343.923 139.458C343.923 140.748 344.112 141.887 344.49 142.873C344.868 143.851 345.421 144.619 346.147 145.175C346.874 145.724 347.764 145.998 348.817 145.998C349.914 145.998 350.83 145.709 351.564 145.13C352.305 144.545 352.861 143.759 353.232 142.773C353.61 141.779 353.799 140.674 353.799 139.458C353.799 138.257 353.614 137.174 353.243 136.211C352.88 135.239 352.327 134.472 351.586 133.908C350.852 133.337 349.929 133.052 348.817 133.052C347.749 133.052 346.852 133.322 346.125 133.864C345.398 134.398 344.85 135.146 344.479 136.11C344.108 137.067 343.923 138.183 343.923 139.458ZM363.053 137.723V148H360.428V125.222H363.053V133.586H363.275C363.676 132.703 364.276 132.003 365.077 131.484C365.885 130.957 366.96 130.694 368.303 130.694C369.467 130.694 370.486 130.927 371.361 131.395C372.236 131.854 372.915 132.562 373.397 133.519C373.886 134.468 374.131 135.677 374.131 137.145V148H371.506V137.323C371.506 135.966 371.154 134.917 370.449 134.175C369.752 133.426 368.785 133.052 367.546 133.052C366.686 133.052 365.915 133.233 365.233 133.597C364.558 133.96 364.024 134.49 363.631 135.187C363.246 135.884 363.053 136.73 363.053 137.723ZM383.96 148.4C382.877 148.4 381.895 148.196 381.012 147.789C380.13 147.373 379.429 146.777 378.91 145.998C378.391 145.212 378.132 144.263 378.132 143.151C378.132 142.172 378.325 141.379 378.71 140.771C379.096 140.155 379.611 139.673 380.256 139.325C380.901 138.976 381.613 138.717 382.392 138.546C383.178 138.368 383.967 138.227 384.761 138.124C385.799 137.99 386.64 137.89 387.285 137.823C387.938 137.749 388.412 137.627 388.709 137.456C389.013 137.286 389.165 136.989 389.165 136.566V136.477C389.165 135.38 388.865 134.527 388.264 133.919C387.671 133.311 386.77 133.007 385.561 133.007C384.308 133.007 383.326 133.282 382.614 133.83C381.902 134.379 381.402 134.965 381.113 135.588L378.621 134.698C379.066 133.66 379.659 132.852 380.401 132.273C381.15 131.688 381.965 131.28 382.848 131.05C383.737 130.813 384.612 130.694 385.472 130.694C386.021 130.694 386.651 130.761 387.363 130.894C388.082 131.02 388.776 131.283 389.443 131.684C390.118 132.084 390.678 132.688 391.122 133.497C391.567 134.305 391.79 135.387 391.79 136.744V148H389.165V145.687H389.031C388.854 146.057 388.557 146.454 388.142 146.877C387.726 147.299 387.174 147.659 386.485 147.956C385.795 148.252 384.953 148.4 383.96 148.4ZM384.36 146.043C385.398 146.043 386.273 145.839 386.985 145.431C387.704 145.023 388.246 144.497 388.609 143.851C388.98 143.206 389.165 142.528 389.165 141.816V139.414C389.054 139.547 388.809 139.67 388.431 139.781C388.06 139.885 387.63 139.977 387.141 140.059C386.659 140.133 386.188 140.2 385.728 140.259C385.276 140.311 384.909 140.355 384.627 140.392C383.945 140.481 383.307 140.626 382.714 140.826C382.128 141.019 381.654 141.312 381.29 141.705C380.935 142.09 380.757 142.617 380.757 143.284C380.757 144.196 381.094 144.886 381.769 145.353C382.451 145.813 383.315 146.043 384.36 146.043ZM404.01 130.916V133.141H395.157V130.916H404.01ZM397.737 126.823H400.362V143.106C400.362 143.848 400.47 144.404 400.685 144.775C400.907 145.138 401.189 145.383 401.53 145.509C401.879 145.627 402.246 145.687 402.631 145.687C402.92 145.687 403.158 145.672 403.343 145.642C403.528 145.605 403.677 145.575 403.788 145.553L404.322 147.911C404.144 147.978 403.895 148.044 403.576 148.111C403.258 148.185 402.854 148.222 402.364 148.222C401.623 148.222 400.896 148.063 400.184 147.744C399.48 147.425 398.894 146.94 398.427 146.287C397.967 145.635 397.737 144.812 397.737 143.818V126.823ZM407.959 148V130.916H410.583V148H407.959ZM409.293 128.069C408.782 128.069 408.34 127.895 407.97 127.546C407.606 127.198 407.425 126.779 407.425 126.29C407.425 125.8 407.606 125.381 407.97 125.033C408.34 124.684 408.782 124.51 409.293 124.51C409.805 124.51 410.242 124.684 410.606 125.033C410.976 125.381 411.162 125.8 411.162 126.29C411.162 126.779 410.976 127.198 410.606 127.546C410.242 127.895 409.805 128.069 409.293 128.069ZM414.902 148V145.998L424.6 133.541V133.363H415.213V130.916H427.981V133.007L418.55 145.375V145.553H428.293V148H414.902ZM432.336 148V130.916H434.96V148H432.336ZM433.67 128.069C433.159 128.069 432.717 127.895 432.347 127.546C431.983 127.198 431.802 126.779 431.802 126.29C431.802 125.8 431.983 125.381 432.347 125.033C432.717 124.684 433.159 124.51 433.67 124.51C434.182 124.51 434.619 124.684 434.983 125.033C435.353 125.381 435.539 125.8 435.539 126.29C435.539 126.779 435.353 127.198 434.983 127.546C434.619 127.895 434.182 128.069 433.67 128.069ZM442.393 137.723V148H439.768V130.916H442.304V133.586H442.526C442.927 132.718 443.535 132.021 444.35 131.495C445.166 130.961 446.219 130.694 447.509 130.694C448.666 130.694 449.678 130.931 450.545 131.406C451.413 131.873 452.088 132.585 452.57 133.541C453.052 134.49 453.293 135.691 453.293 137.145V148H450.668V137.323C450.668 135.981 450.319 134.935 449.622 134.186C448.925 133.43 447.969 133.052 446.753 133.052C445.915 133.052 445.166 133.233 444.506 133.597C443.854 133.96 443.338 134.49 442.96 135.187C442.582 135.884 442.393 136.73 442.393 137.723ZM464.985 154.762C463.717 154.762 462.627 154.599 461.715 154.273C460.803 153.954 460.043 153.531 459.435 153.005C458.834 152.486 458.356 151.93 458 151.337L460.091 149.869C460.328 150.18 460.629 150.536 460.992 150.936C461.355 151.344 461.852 151.696 462.482 151.993C463.12 152.297 463.954 152.449 464.985 152.449C466.364 152.449 467.502 152.115 468.399 151.448C469.296 150.781 469.745 149.735 469.745 148.311V144.841H469.523C469.33 145.153 469.055 145.538 468.7 145.998C468.351 146.45 467.847 146.854 467.187 147.21C466.534 147.559 465.652 147.733 464.54 147.733C463.161 147.733 461.922 147.407 460.825 146.754C459.735 146.102 458.871 145.153 458.234 143.907C457.603 142.661 457.288 141.149 457.288 139.369C457.288 137.619 457.596 136.096 458.211 134.798C458.827 133.493 459.683 132.485 460.781 131.773C461.878 131.054 463.146 130.694 464.584 130.694C465.697 130.694 466.579 130.879 467.231 131.25C467.891 131.613 468.396 132.029 468.744 132.496C469.1 132.955 469.374 133.334 469.567 133.63H469.834V130.916H472.37V148.489C472.37 149.957 472.036 151.151 471.369 152.071C470.709 152.998 469.819 153.676 468.7 154.106C467.587 154.544 466.349 154.762 464.985 154.762ZM464.896 145.375C465.949 145.375 466.838 145.134 467.565 144.652C468.292 144.17 468.844 143.477 469.222 142.572C469.6 141.668 469.789 140.585 469.789 139.325C469.789 138.094 469.604 137.008 469.233 136.066C468.863 135.124 468.314 134.386 467.587 133.853C466.861 133.319 465.963 133.052 464.896 133.052C463.784 133.052 462.857 133.334 462.115 133.897C461.381 134.461 460.829 135.217 460.458 136.166C460.095 137.115 459.913 138.168 459.913 139.325C459.913 140.511 460.098 141.56 460.469 142.472C460.847 143.377 461.403 144.089 462.137 144.608C462.879 145.119 463.798 145.375 464.896 145.375Z" fill="#262633"/>
<path d="M519.724 137L527.623 121.586L510.324 122.452L519.724 137ZM509.447 85.3377L508.062 85.9118L509.447 85.3377ZM480.183 41.5406L481.244 40.4799L480.183 41.5406ZM436.386 12.2763L435.812 13.6621L436.386 12.2763ZM333.061 12.2763L333.636 13.6621L333.061 12.2763ZM289.264 41.5406L290.325 42.6013L289.264 41.5406ZM520.541 123.368C519.212 110.119 515.948 97.1108 510.833 84.7637L508.062 85.9118C513.064 97.9875 516.256 110.71 517.556 123.667L520.541 123.368ZM510.833 84.7637C503.974 68.2028 493.919 53.1551 481.244 40.4799L479.123 42.6012C491.519 54.9979 501.353 69.7148 508.062 85.9118L510.833 84.7637ZM481.244 40.4799C468.569 27.8047 453.521 17.7502 436.96 10.8904L435.812 13.6621C452.009 20.3711 466.726 30.2046 479.123 42.6012L481.244 40.4799ZM436.96 10.8904C420.399 4.03067 402.649 0.5 384.724 0.5V3.5C402.255 3.5 419.615 6.95308 435.812 13.6621L436.96 10.8904ZM384.724 0.5C366.798 0.5 349.048 4.03068 332.487 10.8904L333.636 13.6621C349.832 6.95308 367.192 3.5 384.724 3.5V0.5ZM332.487 10.8904C315.927 17.7502 300.879 27.8047 288.204 40.4799L290.325 42.6013C302.722 30.2046 317.439 20.3711 333.636 13.6621L332.487 10.8904ZM288.204 40.4799C275.528 53.1551 265.474 68.2028 258.614 84.7637L261.386 85.9118C268.095 69.7148 277.928 54.9979 290.325 42.6013L288.204 40.4799Z" fill="#A69BEE"/>
<path d="M258 73L261.781 83.2187L272 87L261.781 90.7813L258 101L254.219 90.7813L244 87L254.219 83.2187L258 73Z" fill="#A69BEE"/>
<rect x="569.556" y="484.89" width="228.74" height="228.74" rx="114.37" transform="rotate(158.545 569.556 484.89)" fill="#EAE2FF"/>
<path d="M375.697 394.809L375.697 414.106L373.36 414.106L373.36 394.809L375.697 394.809ZM385.546 414.408C384.34 414.408 383.275 414.103 382.351 413.494C381.428 412.878 380.706 412.012 380.184 410.893C379.663 409.769 379.402 408.44 379.402 406.908C379.402 405.387 379.663 404.068 380.184 402.95C380.706 401.832 381.431 400.968 382.361 400.359C383.29 399.75 384.365 399.445 385.583 399.445C386.526 399.445 387.27 399.602 387.816 399.916C388.369 400.224 388.79 400.576 389.079 400.971C389.374 401.361 389.604 401.681 389.767 401.933L389.955 401.933L389.955 394.809L392.179 394.809L392.179 414.106L390.031 414.106L390.031 411.883L389.767 411.883C389.604 412.147 389.371 412.479 389.07 412.882C388.768 413.277 388.338 413.632 387.779 413.946C387.22 414.254 386.475 414.408 385.546 414.408ZM385.847 412.41C386.739 412.41 387.493 412.178 388.109 411.713C388.724 411.242 389.192 410.592 389.513 409.763C389.833 408.927 389.993 407.963 389.993 406.87C389.993 405.789 389.836 404.844 389.522 404.034C389.208 403.217 388.743 402.583 388.127 402.13C387.512 401.672 386.752 401.443 385.847 401.443C384.905 401.443 384.12 401.684 383.492 402.168C382.87 402.646 382.402 403.296 382.088 404.119C381.78 404.935 381.626 405.852 381.626 406.87C381.626 407.9 381.783 408.836 382.097 409.678C382.417 410.513 382.888 411.179 383.51 411.675C384.139 412.165 384.917 412.41 385.847 412.41ZM402.629 414.408C401.234 414.408 400.031 414.1 399.02 413.485C398.015 412.863 397.239 411.996 396.692 410.884C396.152 409.766 395.882 408.465 395.882 406.983C395.882 405.501 396.152 404.194 396.692 403.063C397.239 401.926 397.999 401.041 398.973 400.406C399.953 399.765 401.096 399.445 402.403 399.445C403.156 399.445 403.901 399.571 404.636 399.822C405.371 400.073 406.04 400.481 406.643 401.047C407.246 401.606 407.726 402.347 408.084 403.271C408.442 404.194 408.621 405.331 408.621 406.681L408.621 407.624L397.465 407.624L397.465 405.702L406.36 405.702C406.36 404.885 406.197 404.156 405.87 403.516C405.55 402.875 405.091 402.369 404.494 401.998C403.904 401.628 403.207 401.443 402.403 401.443C401.517 401.443 400.75 401.662 400.103 402.102C399.463 402.536 398.97 403.101 398.624 403.798C398.279 404.495 398.106 405.243 398.106 406.041L398.106 407.322C398.106 408.415 398.294 409.342 398.671 410.102C399.054 410.856 399.585 411.43 400.264 411.826C400.942 412.216 401.73 412.41 402.629 412.41C403.213 412.41 403.741 412.329 404.212 412.165C404.689 411.996 405.101 411.745 405.446 411.412C405.791 411.072 406.058 410.652 406.247 410.149L408.395 410.752C408.169 411.481 407.789 412.121 407.255 412.674C406.721 413.221 406.062 413.648 405.276 413.956C404.491 414.257 403.609 414.408 402.629 414.408ZM416.263 414.446C415.346 414.446 414.514 414.273 413.766 413.927C413.019 413.576 412.425 413.07 411.985 412.41C411.546 411.745 411.326 410.94 411.326 409.998C411.326 409.169 411.489 408.497 411.816 407.982C412.142 407.46 412.579 407.052 413.125 406.757C413.672 406.462 414.275 406.242 414.934 406.097C415.6 405.947 416.269 405.827 416.941 405.739C417.821 405.626 418.534 405.541 419.08 405.485C419.633 405.422 420.035 405.318 420.286 405.174C420.544 405.029 420.673 404.778 420.673 404.42L420.673 404.345C420.673 403.415 420.418 402.693 419.91 402.178C419.407 401.662 418.644 401.405 417.62 401.405C416.558 401.405 415.726 401.637 415.123 402.102C414.52 402.567 414.096 403.063 413.851 403.591L411.74 402.837C412.117 401.958 412.62 401.273 413.248 400.783C413.882 400.287 414.573 399.941 415.321 399.747C416.075 399.546 416.816 399.445 417.545 399.445C418.009 399.445 418.543 399.502 419.146 399.615C419.756 399.721 420.343 399.944 420.908 400.284C421.48 400.623 421.954 401.135 422.331 401.819C422.708 402.504 422.897 403.421 422.897 404.571L422.897 414.106L420.673 414.106L420.673 412.147L420.56 412.147C420.409 412.461 420.158 412.797 419.806 413.155C419.454 413.513 418.986 413.817 418.402 414.069C417.818 414.32 417.105 414.446 416.263 414.446ZM416.602 412.448C417.482 412.448 418.223 412.275 418.826 411.93C419.435 411.584 419.894 411.138 420.202 410.592C420.516 410.045 420.673 409.471 420.673 408.868L420.673 406.832C420.579 406.945 420.371 407.049 420.051 407.143C419.737 407.231 419.372 407.31 418.958 407.379C418.55 407.442 418.151 407.498 417.761 407.548C417.378 407.592 417.067 407.63 416.828 407.661C416.25 407.737 415.71 407.859 415.208 408.029C414.711 408.192 414.309 408.44 414.002 408.773C413.7 409.1 413.549 409.546 413.549 410.111C413.549 410.884 413.835 411.468 414.407 411.864C414.985 412.253 415.717 412.448 416.602 412.448ZM433.25 399.633L433.25 401.518L425.749 401.518L425.749 399.633L433.25 399.633ZM427.935 396.166L430.159 396.166L430.159 409.961C430.159 410.589 430.25 411.06 430.432 411.374C430.621 411.682 430.859 411.889 431.148 411.996C431.444 412.096 431.754 412.147 432.081 412.147C432.326 412.147 432.527 412.134 432.684 412.109C432.841 412.077 432.967 412.052 433.061 412.033L433.513 414.031C433.363 414.088 433.152 414.144 432.882 414.201C432.612 414.263 432.27 414.295 431.855 414.295C431.227 414.295 430.611 414.16 430.008 413.89C429.411 413.62 428.915 413.208 428.519 412.655C428.13 412.103 427.935 411.405 427.935 410.564L427.935 396.166ZM436.595 414.106L436.595 399.633L438.818 399.633L438.818 414.106L436.595 414.106ZM437.725 397.221C437.292 397.221 436.918 397.074 436.604 396.778C436.296 396.483 436.142 396.128 436.142 395.714C436.142 395.299 436.296 394.944 436.604 394.649C436.918 394.354 437.292 394.206 437.725 394.206C438.159 394.206 438.529 394.354 438.837 394.649C439.151 394.944 439.308 395.299 439.308 395.714C439.308 396.128 439.151 396.483 438.837 396.778C438.529 397.074 438.159 397.221 437.725 397.221ZM445.115 405.4L445.115 414.106L442.891 414.106L442.891 399.633L445.039 399.633L445.039 401.895L445.228 401.895C445.567 401.16 446.082 400.569 446.773 400.123C447.464 399.671 448.356 399.445 449.449 399.445C450.429 399.445 451.287 399.646 452.022 400.048C452.757 400.444 453.328 401.047 453.736 401.857C454.145 402.661 454.349 403.679 454.349 404.91L454.349 414.106L452.125 414.106L452.125 405.061C452.125 403.924 451.83 403.038 451.239 402.404C450.649 401.763 449.839 401.443 448.808 401.443C448.099 401.443 447.464 401.596 446.905 401.904C446.352 402.212 445.916 402.661 445.595 403.252C445.275 403.842 445.115 404.558 445.115 405.4ZM464.254 419.835C463.18 419.835 462.257 419.697 461.484 419.421C460.711 419.151 460.068 418.793 459.552 418.347C459.044 417.907 458.639 417.436 458.337 416.933L460.108 415.689C460.309 415.953 460.564 416.255 460.872 416.594C461.179 416.939 461.6 417.238 462.134 417.489C462.674 417.747 463.381 417.875 464.254 417.875C465.423 417.875 466.387 417.593 467.147 417.027C467.907 416.462 468.287 415.576 468.287 414.37L468.287 411.43L468.099 411.43C467.935 411.694 467.703 412.021 467.401 412.41C467.106 412.794 466.679 413.136 466.12 413.437C465.567 413.733 464.82 413.88 463.877 413.88C462.709 413.88 461.66 413.604 460.73 413.051C459.807 412.498 459.075 411.694 458.535 410.639C458.001 409.584 457.734 408.302 457.734 406.795C457.734 405.312 457.995 404.021 458.516 402.922C459.037 401.816 459.763 400.962 460.693 400.359C461.622 399.75 462.696 399.445 463.915 399.445C464.857 399.445 465.605 399.602 466.158 399.916C466.717 400.224 467.144 400.576 467.439 400.971C467.741 401.361 467.973 401.681 468.136 401.933L468.363 401.933L468.363 399.633L470.511 399.633L470.511 414.521C470.511 415.765 470.228 416.776 469.663 417.555C469.104 418.34 468.35 418.915 467.401 419.279C466.459 419.65 465.41 419.835 464.254 419.835ZM464.179 411.883C465.071 411.883 465.825 411.679 466.44 411.27C467.056 410.862 467.524 410.275 467.844 409.508C468.165 408.742 468.325 407.825 468.325 406.757C468.325 405.714 468.168 404.794 467.854 403.996C467.54 403.198 467.075 402.573 466.459 402.121C465.844 401.669 465.084 401.443 464.179 401.443C463.237 401.443 462.451 401.681 461.823 402.159C461.201 402.636 460.733 403.277 460.419 404.081C460.112 404.885 459.958 405.777 459.958 406.757C459.958 407.762 460.115 408.651 460.429 409.423C460.749 410.19 461.22 410.793 461.842 411.233C462.47 411.666 463.249 411.883 464.179 411.883ZM377.791 434.875L375.793 435.44C375.668 435.107 375.482 434.784 375.237 434.47C374.999 434.149 374.672 433.885 374.257 433.678C373.843 433.471 373.312 433.367 372.665 433.367C371.779 433.367 371.041 433.571 370.451 433.98C369.867 434.382 369.574 434.894 369.574 435.516C369.574 436.068 369.775 436.505 370.177 436.825C370.58 437.146 371.208 437.413 372.062 437.626L374.21 438.154C375.504 438.468 376.469 438.948 377.103 439.595C377.737 440.236 378.055 441.062 378.055 442.074C378.055 442.903 377.816 443.644 377.339 444.297C376.867 444.951 376.208 445.466 375.36 445.843C374.512 446.22 373.526 446.408 372.401 446.408C370.925 446.408 369.703 446.088 368.736 445.447C367.768 444.806 367.156 443.87 366.898 442.639L369.009 442.111C369.21 442.89 369.59 443.474 370.149 443.864C370.715 444.253 371.453 444.448 372.364 444.448C373.4 444.448 374.223 444.228 374.832 443.788C375.448 443.342 375.756 442.809 375.756 442.187C375.756 441.684 375.58 441.263 375.228 440.924C374.876 440.579 374.336 440.321 373.607 440.151L371.195 439.586C369.87 439.272 368.896 438.785 368.274 438.126C367.659 437.46 367.351 436.627 367.351 435.629C367.351 434.812 367.58 434.09 368.039 433.461C368.503 432.833 369.135 432.34 369.932 431.982C370.737 431.624 371.647 431.445 372.665 431.445C374.097 431.445 375.222 431.759 376.038 432.387C376.861 433.015 377.445 433.845 377.791 434.875ZM387.282 446.408C385.975 446.408 384.829 446.097 383.842 445.475C382.863 444.853 382.096 443.983 381.543 442.865C380.997 441.747 380.724 440.44 380.724 438.945C380.724 437.438 380.997 436.122 381.543 434.997C382.096 433.873 382.863 433 383.842 432.378C384.829 431.756 385.975 431.445 387.282 431.445C388.588 431.445 389.732 431.756 390.712 432.378C391.698 433 392.464 433.873 393.011 434.997C393.563 436.122 393.84 437.438 393.84 438.945C393.84 440.44 393.563 441.747 393.011 442.865C392.464 443.983 391.698 444.853 390.712 445.475C389.732 446.097 388.588 446.408 387.282 446.408ZM387.282 444.41C388.274 444.41 389.091 444.156 389.732 443.647C390.372 443.138 390.847 442.469 391.154 441.64C391.462 440.811 391.616 439.913 391.616 438.945C391.616 437.978 391.462 437.077 391.154 436.241C390.847 435.406 390.372 434.73 389.732 434.215C389.091 433.7 388.274 433.443 387.282 433.443C386.289 433.443 385.473 433.7 384.832 434.215C384.191 434.73 383.717 435.406 383.409 436.241C383.101 437.077 382.947 437.978 382.947 438.945C382.947 439.913 383.101 440.811 383.409 441.64C383.717 442.469 384.191 443.138 384.832 443.647C385.473 444.156 386.289 444.41 387.282 444.41ZM399.458 426.809L399.458 446.106L397.234 446.106L397.234 426.809L399.458 426.809ZM412.652 440.189L412.652 431.633L414.876 431.633L414.876 446.106L412.652 446.106L412.652 443.657L412.501 443.657C412.162 444.392 411.634 445.017 410.918 445.532C410.202 446.04 409.297 446.295 408.204 446.295C407.3 446.295 406.496 446.097 405.792 445.701C405.089 445.299 404.536 444.696 404.134 443.892C403.732 443.082 403.531 442.061 403.531 440.83L403.531 431.633L405.755 431.633L405.755 440.679C405.755 441.734 406.05 442.576 406.64 443.204C407.237 443.832 407.997 444.147 408.921 444.147C409.473 444.147 410.036 444.005 410.607 443.723C411.185 443.44 411.669 443.006 412.058 442.422C412.454 441.838 412.652 441.094 412.652 440.189ZM425.243 431.633L425.243 433.518L417.742 433.518L417.742 431.633L425.243 431.633ZM419.928 428.166L422.152 428.166L422.152 441.961C422.152 442.589 422.243 443.06 422.425 443.374C422.614 443.682 422.853 443.889 423.142 443.996C423.437 444.096 423.748 444.147 424.074 444.147C424.319 444.147 424.52 444.134 424.677 444.109C424.834 444.077 424.96 444.052 425.054 444.033L425.507 446.031C425.356 446.088 425.145 446.144 424.875 446.201C424.605 446.263 424.263 446.295 423.848 446.295C423.22 446.295 422.604 446.16 422.001 445.89C421.405 445.62 420.908 445.208 420.513 444.655C420.123 444.103 419.928 443.405 419.928 442.564L419.928 428.166ZM428.588 446.106L428.588 431.633L430.811 431.633L430.811 446.106L428.588 446.106ZM429.718 429.221C429.285 429.221 428.911 429.074 428.597 428.778C428.289 428.483 428.135 428.128 428.135 427.714C428.135 427.299 428.289 426.944 428.597 426.649C428.911 426.354 429.285 426.206 429.718 426.206C430.152 426.206 430.522 426.354 430.83 426.649C431.144 426.944 431.301 427.299 431.301 427.714C431.301 428.128 431.144 428.483 430.83 428.778C430.522 429.074 430.152 429.221 429.718 429.221ZM440.764 446.408C439.457 446.408 438.311 446.097 437.325 445.475C436.345 444.853 435.578 443.983 435.026 442.865C434.479 441.747 434.206 440.44 434.206 438.945C434.206 437.438 434.479 436.122 435.026 434.997C435.578 433.873 436.345 433 437.325 432.378C438.311 431.756 439.457 431.445 440.764 431.445C442.071 431.445 443.214 431.756 444.194 432.378C445.18 433 445.946 433.873 446.493 434.997C447.046 436.122 447.322 437.438 447.322 438.945C447.322 440.44 447.046 441.747 446.493 442.865C445.946 443.983 445.18 444.853 444.194 445.475C443.214 446.097 442.071 446.408 440.764 446.408ZM440.764 444.41C441.756 444.41 442.573 444.156 443.214 443.647C443.855 443.138 444.329 442.469 444.637 441.64C444.944 440.811 445.098 439.913 445.098 438.945C445.098 437.978 444.944 437.077 444.637 436.241C444.329 435.406 443.855 434.73 443.214 434.215C442.573 433.7 441.756 433.443 440.764 433.443C439.771 433.443 438.955 433.7 438.314 434.215C437.673 434.73 437.199 435.406 436.891 436.241C436.584 437.077 436.43 437.978 436.43 438.945C436.43 439.913 436.584 440.811 436.891 441.64C437.199 442.469 437.673 443.138 438.314 443.647C438.955 444.156 439.771 444.41 440.764 444.41ZM452.94 437.4L452.94 446.106L450.717 446.106L450.717 431.633L452.865 431.633L452.865 433.895L453.053 433.895C453.393 433.16 453.908 432.569 454.599 432.123C455.29 431.671 456.182 431.445 457.275 431.445C458.255 431.445 459.112 431.646 459.847 432.048C460.582 432.444 461.154 433.047 461.562 433.857C461.97 434.661 462.174 435.679 462.174 436.91L462.174 446.106L459.951 446.106L459.951 437.061C459.951 435.924 459.655 435.038 459.065 434.404C458.474 433.763 457.664 433.443 456.634 433.443C455.924 433.443 455.29 433.596 454.731 433.904C454.178 434.212 453.741 434.661 453.421 435.252C453.1 435.842 452.94 436.558 452.94 437.4ZM476.489 434.875L474.492 435.44C474.366 435.107 474.181 434.784 473.936 434.47C473.697 434.149 473.371 433.885 472.956 433.678C472.541 433.471 472.011 433.367 471.364 433.367C470.478 433.367 469.74 433.571 469.149 433.98C468.565 434.382 468.273 434.894 468.273 435.516C468.273 436.068 468.474 436.505 468.876 436.825C469.278 437.146 469.906 437.413 470.761 437.626L472.909 438.154C474.203 438.468 475.167 438.948 475.802 439.595C476.436 440.236 476.753 441.062 476.753 442.074C476.753 442.903 476.515 443.644 476.037 444.297C475.566 444.951 474.907 445.466 474.058 445.843C473.21 446.22 472.224 446.408 471.1 446.408C469.624 446.408 468.402 446.088 467.434 445.447C466.467 444.806 465.855 443.87 465.597 442.639L467.708 442.111C467.909 442.89 468.289 443.474 468.848 443.864C469.413 444.253 470.151 444.448 471.062 444.448C472.099 444.448 472.921 444.228 473.531 443.788C474.146 443.342 474.454 442.809 474.454 442.187C474.454 441.684 474.278 441.263 473.927 440.924C473.575 440.579 473.035 440.321 472.306 440.151L469.894 439.586C468.568 439.272 467.595 438.785 466.973 438.126C466.357 437.46 466.049 436.627 466.049 435.629C466.049 434.812 466.279 434.09 466.737 433.461C467.202 432.833 467.833 432.34 468.631 431.982C469.435 431.624 470.346 431.445 471.364 431.445C472.796 431.445 473.92 431.759 474.737 432.387C475.56 433.015 476.144 433.845 476.489 434.875Z" fill="#262633"/>
<path d="M315.645 463.353L314.091 480.604L329.808 473.324L315.645 463.353ZM339.643 500.727L340.723 499.686L340.723 499.686L339.643 500.727ZM376.117 526.072L376.716 524.697L376.716 524.697L376.117 526.072ZM419.513 535.53L419.486 537.03L419.486 537.03L419.513 535.53ZM500.6 503.662L499.558 502.583L500.6 503.662ZM525.945 467.189L524.57 466.589L524.57 466.589L525.945 467.189ZM319.998 476.312C324.982 485.588 331.224 494.156 338.563 501.768L340.723 499.686C333.575 492.272 327.495 483.927 322.64 474.892L319.998 476.312ZM338.563 501.768C349.076 512.671 361.633 521.397 375.518 527.447L376.716 524.697C363.192 518.804 350.962 510.305 340.723 499.686L338.563 501.768ZM375.518 527.447C389.402 533.497 404.343 536.753 419.486 537.03L419.541 534.03C404.791 533.761 390.239 530.59 376.716 524.697L375.518 527.447ZM419.486 537.03C434.629 537.306 449.678 534.597 463.774 529.057L462.677 526.265C448.948 531.66 434.29 534.299 419.541 534.03L419.486 537.03ZM463.774 529.057C477.871 523.517 490.738 515.255 501.641 504.742L499.558 502.583C488.939 512.822 476.407 520.869 462.677 526.265L463.774 529.057ZM501.641 504.742C512.544 494.23 521.27 481.673 527.32 467.788L524.57 466.589C518.677 480.113 510.178 492.344 499.558 502.583L501.641 504.742ZM527.32 467.788C533.37 453.903 536.626 438.963 536.902 423.819L533.903 423.765C533.634 438.514 530.462 453.066 524.57 466.589L527.32 467.788Z" fill="#B7A0F9"/>
<path d="M546.226 421.459L536.445 424.046L532.042 433.155L529.455 423.374L520.346 418.971L530.127 416.384L534.53 407.275L537.117 417.056L546.226 421.459Z" fill="#B7A0F9"/>
<rect x="675.542" y="146.182" width="190.056" height="190.056" rx="95.0281" transform="rotate(74.5128 675.542 146.182)" fill="#E2E4FE"/>
<path d="M553.268 258.438H548.32V242.405H553.487C555.042 242.405 556.373 242.726 557.48 243.368C558.586 244.004 559.434 244.92 560.024 246.116C560.614 247.306 560.909 248.73 560.909 250.39C560.909 252.06 560.611 253.498 560.016 254.704C559.421 255.904 558.555 256.828 557.417 257.476C556.279 258.117 554.896 258.438 553.268 258.438ZM550.261 256.716H553.143C554.468 256.716 555.567 256.46 556.439 255.949C557.31 255.437 557.96 254.709 558.388 253.765C558.816 252.82 559.03 251.695 559.03 250.39C559.03 249.096 558.819 247.982 558.396 247.047C557.973 246.108 557.341 245.388 556.501 244.886C555.661 244.38 554.614 244.127 553.362 244.127H550.261V256.716ZM568.957 258.689C567.798 258.689 566.799 258.433 565.959 257.922C565.124 257.405 564.479 256.685 564.025 255.761C563.576 254.832 563.352 253.752 563.352 252.52C563.352 251.288 563.576 250.202 564.025 249.263C564.479 248.318 565.11 247.582 565.919 247.055C566.734 246.523 567.684 246.257 568.769 246.257C569.396 246.257 570.014 246.361 570.625 246.57C571.235 246.778 571.791 247.118 572.292 247.587C572.793 248.052 573.193 248.668 573.49 249.435C573.788 250.202 573.936 251.147 573.936 252.269V253.052H564.667V251.455H572.057C572.057 250.776 571.922 250.171 571.65 249.639C571.384 249.106 571.003 248.686 570.507 248.378C570.017 248.07 569.437 247.916 568.769 247.916C568.033 247.916 567.397 248.099 566.859 248.464C566.327 248.824 565.917 249.294 565.63 249.874C565.343 250.453 565.199 251.074 565.199 251.737V252.802C565.199 253.71 565.356 254.48 565.669 255.111C565.987 255.737 566.428 256.215 566.992 256.544C567.556 256.867 568.211 257.029 568.957 257.029C569.443 257.029 569.881 256.961 570.272 256.826C570.669 256.685 571.011 256.476 571.298 256.199C571.585 255.918 571.807 255.568 571.963 255.15L573.748 255.651C573.561 256.257 573.245 256.789 572.801 257.248C572.358 257.703 571.809 258.057 571.157 258.313C570.505 258.564 569.771 258.689 568.957 258.689ZM582.102 246.413V247.979H575.62V246.413H582.102ZM577.561 258.438V244.753C577.561 244.064 577.723 243.49 578.047 243.031C578.37 242.572 578.79 242.227 579.307 241.998C579.824 241.768 580.369 241.653 580.943 241.653C581.397 241.653 581.768 241.69 582.055 241.763C582.342 241.836 582.556 241.904 582.697 241.966L582.165 243.563C582.071 243.532 581.94 243.493 581.773 243.446C581.611 243.399 581.397 243.375 581.131 243.375C580.521 243.375 580.08 243.529 579.808 243.837C579.542 244.145 579.409 244.597 579.409 245.192V258.438H577.561ZM584.691 258.438V246.413H586.539V258.438H584.691ZM585.631 244.409C585.271 244.409 584.96 244.286 584.699 244.041C584.444 243.796 584.316 243.501 584.316 243.156C584.316 242.812 584.444 242.517 584.699 242.272C584.96 242.026 585.271 241.904 585.631 241.904C585.991 241.904 586.299 242.026 586.555 242.272C586.816 242.517 586.946 242.812 586.946 243.156C586.946 243.501 586.816 243.796 586.555 244.041C586.299 244.286 585.991 244.409 585.631 244.409ZM591.771 251.204V258.438H589.923V246.413H591.708V248.292H591.865C592.147 247.681 592.575 247.191 593.149 246.82C593.723 246.444 594.464 246.257 595.372 246.257C596.186 246.257 596.899 246.424 597.51 246.758C598.12 247.086 598.595 247.587 598.934 248.261C599.274 248.929 599.443 249.774 599.443 250.797V258.438H597.596V250.923C597.596 249.978 597.35 249.242 596.86 248.715C596.369 248.182 595.696 247.916 594.84 247.916C594.25 247.916 593.723 248.044 593.258 248.3C592.799 248.556 592.436 248.929 592.17 249.419C591.904 249.91 591.771 250.505 591.771 251.204ZM602.82 258.438V246.413H604.667V258.438H602.82ZM603.759 244.409C603.399 244.409 603.088 244.286 602.827 244.041C602.572 243.796 602.444 243.501 602.444 243.156C602.444 242.812 602.572 242.517 602.827 242.272C603.088 242.026 603.399 241.904 603.759 241.904C604.119 241.904 604.427 242.026 604.683 242.272C604.944 242.517 605.074 242.812 605.074 243.156C605.074 243.501 604.944 243.796 604.683 244.041C604.427 244.286 604.119 244.409 603.759 244.409ZM609.899 251.204V258.438H608.051V246.413H609.836V248.292H609.993C610.275 247.681 610.703 247.191 611.277 246.82C611.851 246.444 612.592 246.257 613.5 246.257C614.315 246.257 615.027 246.424 615.638 246.758C616.248 247.086 616.723 247.587 617.063 248.261C617.402 248.929 617.571 249.774 617.571 250.797V258.438H615.724V250.923C615.724 249.978 615.478 249.242 614.988 248.715C614.497 248.182 613.824 247.916 612.968 247.916C612.378 247.916 611.851 248.044 611.386 248.3C610.927 248.556 610.564 248.929 610.298 249.419C610.032 249.91 609.899 250.505 609.899 251.204ZM625.802 263.199C624.909 263.199 624.142 263.084 623.5 262.854C622.858 262.63 622.323 262.332 621.895 261.962C621.472 261.596 621.136 261.205 620.885 260.787L622.357 259.754C622.524 259.973 622.735 260.223 622.991 260.505C623.247 260.792 623.596 261.04 624.04 261.249C624.489 261.463 625.076 261.57 625.802 261.57C626.772 261.57 627.574 261.335 628.205 260.865C628.837 260.396 629.152 259.66 629.152 258.658V256.215H628.996C628.86 256.434 628.667 256.706 628.417 257.029C628.171 257.348 627.816 257.632 627.352 257.883C626.892 258.128 626.271 258.251 625.488 258.251C624.518 258.251 623.646 258.021 622.874 257.562C622.106 257.102 621.498 256.434 621.049 255.557C620.606 254.681 620.384 253.616 620.384 252.363C620.384 251.131 620.601 250.059 621.034 249.145C621.467 248.227 622.07 247.517 622.842 247.016C623.615 246.51 624.507 246.257 625.52 246.257C626.303 246.257 626.924 246.387 627.383 246.648C627.848 246.904 628.203 247.196 628.448 247.525C628.698 247.848 628.891 248.115 629.027 248.323H629.215V246.413H631V258.783C631 259.816 630.765 260.657 630.295 261.304C629.831 261.956 629.205 262.434 628.417 262.737C627.634 263.045 626.762 263.199 625.802 263.199ZM625.739 256.591C626.48 256.591 627.106 256.421 627.618 256.082C628.129 255.743 628.518 255.255 628.784 254.618C629.051 253.981 629.184 253.219 629.184 252.332C629.184 251.465 629.053 250.701 628.792 250.038C628.531 249.375 628.145 248.856 627.634 248.48C627.122 248.104 626.491 247.916 625.739 247.916C624.956 247.916 624.304 248.115 623.782 248.511C623.265 248.908 622.876 249.44 622.615 250.108C622.359 250.776 622.232 251.518 622.232 252.332C622.232 253.167 622.362 253.905 622.623 254.547C622.889 255.184 623.281 255.685 623.797 256.051C624.319 256.411 624.967 256.591 625.739 256.591ZM645.813 246.413V247.979H639.581V246.413H645.813ZM641.397 243.532H643.245V254.994C643.245 255.516 643.32 255.907 643.472 256.168C643.628 256.424 643.827 256.596 644.067 256.685C644.312 256.768 644.57 256.81 644.842 256.81C645.045 256.81 645.212 256.8 645.343 256.779C645.473 256.753 645.578 256.732 645.656 256.716L646.032 258.376C645.907 258.423 645.732 258.47 645.507 258.517C645.283 258.569 644.998 258.595 644.654 258.595C644.132 258.595 643.62 258.483 643.119 258.258C642.624 258.034 642.211 257.692 641.882 257.233C641.559 256.774 641.397 256.194 641.397 255.495V243.532ZM650.698 251.204V258.438H648.85V242.405H650.698V248.292H650.854C651.136 247.671 651.559 247.178 652.123 246.812C652.692 246.442 653.449 246.257 654.393 246.257C655.213 246.257 655.93 246.421 656.546 246.75C657.162 247.073 657.64 247.572 657.979 248.245C658.323 248.913 658.496 249.764 658.496 250.797V258.438H656.648V250.923C656.648 249.967 656.4 249.229 655.904 248.707C655.414 248.18 654.732 247.916 653.861 247.916C653.255 247.916 652.713 248.044 652.232 248.3C651.757 248.556 651.382 248.929 651.105 249.419C650.834 249.91 650.698 250.505 650.698 251.204ZM666.918 258.689C665.759 258.689 664.759 258.433 663.919 257.922C663.084 257.405 662.439 256.685 661.985 255.761C661.537 254.832 661.312 253.752 661.312 252.52C661.312 251.288 661.537 250.202 661.985 249.263C662.439 248.318 663.071 247.582 663.88 247.055C664.694 246.523 665.644 246.257 666.73 246.257C667.356 246.257 667.975 246.361 668.585 246.57C669.196 246.778 669.752 247.118 670.253 247.587C670.754 248.052 671.153 248.668 671.451 249.435C671.748 250.202 671.897 251.147 671.897 252.269V253.052H662.627V251.455H670.018C670.018 250.776 669.882 250.171 669.611 249.639C669.345 249.106 668.964 248.686 668.468 248.378C667.977 248.07 667.398 247.916 666.73 247.916C665.994 247.916 665.357 248.099 664.82 248.464C664.287 248.824 663.877 249.294 663.59 249.874C663.303 250.453 663.16 251.074 663.16 251.737V252.802C663.16 253.71 663.316 254.48 663.629 255.111C663.948 255.737 664.389 256.215 664.953 256.544C665.516 256.867 666.171 257.029 666.918 257.029C667.403 257.029 667.842 256.961 668.233 256.826C668.63 256.685 668.971 256.476 669.259 256.199C669.546 255.918 669.767 255.568 669.924 255.15L671.709 255.651C671.521 256.257 671.205 256.789 670.762 257.248C670.318 257.703 669.77 258.057 669.118 258.313C668.465 258.564 667.732 258.689 666.918 258.689ZM568.716 289.948V273.413H570.501V275.323H570.721C570.856 275.115 571.044 274.848 571.284 274.525C571.53 274.196 571.879 273.904 572.333 273.648C572.793 273.387 573.414 273.257 574.197 273.257C575.209 273.257 576.102 273.51 576.874 274.016C577.647 274.522 578.25 275.24 578.683 276.169C579.116 277.098 579.333 278.194 579.333 279.457C579.333 280.731 579.116 281.835 578.683 282.769C578.25 283.698 577.649 284.418 576.882 284.93C576.115 285.436 575.23 285.689 574.228 285.689C573.456 285.689 572.837 285.561 572.373 285.305C571.908 285.044 571.55 284.75 571.3 284.421C571.049 284.087 570.856 283.81 570.721 283.591H570.564V289.948H568.716ZM570.533 279.426C570.533 280.334 570.666 281.135 570.932 281.829C571.198 282.518 571.587 283.058 572.099 283.45C572.61 283.836 573.236 284.029 573.977 284.029C574.75 284.029 575.395 283.826 575.911 283.419C576.433 283.006 576.825 282.453 577.086 281.759C577.352 281.059 577.485 280.282 577.485 279.426C577.485 278.58 577.354 277.818 577.093 277.14C576.838 276.456 576.449 275.916 575.927 275.519C575.41 275.117 574.76 274.916 573.977 274.916C573.226 274.916 572.594 275.107 572.083 275.488C571.571 275.864 571.185 276.391 570.924 277.069C570.663 277.743 570.533 278.528 570.533 279.426ZM582.151 285.438V273.413H583.936V275.229H584.061C584.28 274.634 584.677 274.152 585.251 273.781C585.825 273.41 586.473 273.225 587.193 273.225C587.329 273.225 587.498 273.228 587.702 273.233C587.905 273.238 588.059 273.246 588.164 273.257V275.135C588.101 275.12 587.957 275.096 587.733 275.065C587.514 275.028 587.282 275.01 587.036 275.01C586.452 275.01 585.93 275.133 585.47 275.378C585.016 275.618 584.656 275.952 584.39 276.38C584.129 276.803 583.999 277.286 583.999 277.829V285.438H582.151ZM594.873 285.689C593.787 285.689 592.835 285.431 592.016 284.914C591.201 284.397 590.565 283.674 590.105 282.745C589.651 281.816 589.424 280.731 589.424 279.488C589.424 278.236 589.651 277.142 590.105 276.208C590.565 275.274 591.201 274.548 592.016 274.032C592.835 273.515 593.787 273.257 594.873 273.257C595.959 273.257 596.909 273.515 597.723 274.032C598.542 274.548 599.179 275.274 599.633 276.208C600.092 277.142 600.322 278.236 600.322 279.488C600.322 280.731 600.092 281.816 599.633 282.745C599.179 283.674 598.542 284.397 597.723 284.914C596.909 285.431 595.959 285.689 594.873 285.689ZM594.873 284.029C595.698 284.029 596.376 283.818 596.909 283.395C597.441 282.972 597.835 282.416 598.091 281.728C598.347 281.039 598.474 280.292 598.474 279.488C598.474 278.685 598.347 277.936 598.091 277.241C597.835 276.547 597.441 275.986 596.909 275.558C596.376 275.13 595.698 274.916 594.873 274.916C594.048 274.916 593.37 275.13 592.838 275.558C592.305 275.986 591.911 276.547 591.655 277.241C591.4 277.936 591.272 278.685 591.272 279.488C591.272 280.292 591.4 281.039 591.655 281.728C591.911 282.416 592.305 282.972 592.838 283.395C593.37 283.818 594.048 284.029 594.873 284.029ZM603.393 285.438V269.405H605.241V275.323H605.397C605.533 275.115 605.721 274.848 605.961 274.525C606.206 274.196 606.556 273.904 607.01 273.648C607.469 273.387 608.09 273.257 608.873 273.257C609.886 273.257 610.778 273.51 611.551 274.016C612.323 274.522 612.926 275.24 613.359 276.169C613.793 277.098 614.009 278.194 614.009 279.457C614.009 280.731 613.793 281.835 613.359 282.769C612.926 283.698 612.326 284.418 611.559 284.93C610.791 285.436 609.907 285.689 608.905 285.689C608.132 285.689 607.514 285.561 607.049 285.305C606.585 285.044 606.227 284.75 605.977 284.421C605.726 284.087 605.533 283.81 605.397 283.591H605.178V285.438H603.393ZM605.209 279.426C605.209 280.334 605.342 281.135 605.609 281.829C605.875 282.518 606.264 283.058 606.775 283.45C607.287 283.836 607.913 284.029 608.654 284.029C609.427 284.029 610.071 283.826 610.588 283.419C611.11 283.006 611.501 282.453 611.762 281.759C612.028 281.059 612.162 280.282 612.162 279.426C612.162 278.58 612.031 277.818 611.77 277.14C611.514 276.456 611.125 275.916 610.604 275.519C610.087 275.117 609.437 274.916 608.654 274.916C607.903 274.916 607.271 275.107 606.76 275.488C606.248 275.864 605.862 276.391 605.601 277.069C605.34 277.743 605.209 278.528 605.209 279.426ZM618.683 269.405V285.438H616.835V269.405H618.683ZM627.109 285.689C625.95 285.689 624.951 285.433 624.111 284.922C623.275 284.405 622.631 283.685 622.177 282.761C621.728 281.832 621.504 280.752 621.504 279.52C621.504 278.288 621.728 277.202 622.177 276.263C622.631 275.318 623.262 274.582 624.071 274.055C624.886 273.523 625.836 273.257 626.921 273.257C627.548 273.257 628.166 273.361 628.777 273.57C629.387 273.778 629.943 274.118 630.444 274.587C630.945 275.052 631.345 275.668 631.642 276.435C631.94 277.202 632.088 278.147 632.088 279.269V280.052H622.819V278.455H630.209C630.209 277.776 630.074 277.171 629.802 276.639C629.536 276.106 629.155 275.686 628.659 275.378C628.169 275.07 627.589 274.916 626.921 274.916C626.185 274.916 625.549 275.099 625.011 275.464C624.479 275.824 624.069 276.294 623.782 276.874C623.495 277.453 623.351 278.074 623.351 278.737V279.802C623.351 280.71 623.508 281.48 623.821 282.111C624.139 282.737 624.58 283.215 625.144 283.544C625.708 283.867 626.363 284.029 627.109 284.029C627.594 284.029 628.033 283.961 628.424 283.826C628.821 283.685 629.163 283.476 629.45 283.199C629.737 282.918 629.959 282.568 630.115 282.15L631.9 282.651C631.713 283.257 631.397 283.789 630.953 284.248C630.509 284.703 629.961 285.057 629.309 285.313C628.657 285.564 627.923 285.689 627.109 285.689ZM634.899 285.438V273.413H636.684V275.292H636.841C637.091 274.65 637.496 274.152 638.054 273.797C638.613 273.437 639.283 273.257 640.066 273.257C640.859 273.257 641.52 273.437 642.047 273.797C642.579 274.152 642.994 274.65 643.292 275.292H643.417C643.725 274.671 644.187 274.178 644.803 273.812C645.419 273.442 646.157 273.257 647.018 273.257C648.093 273.257 648.973 273.593 649.657 274.266C650.34 274.935 650.682 275.976 650.682 277.39V285.438H648.835V277.39C648.835 276.503 648.592 275.869 648.107 275.488C647.621 275.107 647.05 274.916 646.392 274.916C645.546 274.916 644.891 275.172 644.427 275.684C643.962 276.19 643.73 276.832 643.73 277.609V285.438H641.851V277.202C641.851 276.519 641.629 275.968 641.186 275.55C640.742 275.128 640.17 274.916 639.471 274.916C638.991 274.916 638.542 275.044 638.125 275.3C637.712 275.556 637.378 275.911 637.122 276.365C636.872 276.814 636.747 277.333 636.747 277.923V285.438H634.899Z" fill="#262633"/>
<path d="M634.713 354.712L651.747 357.851L645.948 341.53L634.713 354.712ZM667.827 338.031L668.75 339.213L668.75 339.213L667.827 338.031ZM692.037 309.947L690.731 309.208L690.731 309.208L692.037 309.947ZM703.656 274.737L705.145 274.92L705.145 274.92L703.656 274.737ZM684.235 204.646L683.053 205.57L683.053 205.57L684.235 204.646ZM656.151 180.437L655.413 181.742L655.413 181.742L656.151 180.437ZM648.036 351.567C655.414 348.338 662.375 344.192 668.75 339.213L666.904 336.849C660.727 341.673 653.982 345.69 646.833 348.818L648.036 351.567ZM668.75 339.213C678.741 331.411 687.097 321.718 693.342 310.686L690.731 309.208C684.681 319.897 676.584 329.289 666.904 336.849L668.75 339.213ZM693.342 310.686C699.586 299.655 703.597 287.501 705.145 274.92L702.167 274.554C700.668 286.744 696.782 298.52 690.731 309.208L693.342 310.686ZM705.145 274.92C706.692 262.338 705.747 249.575 702.362 237.359L699.471 238.161C702.751 249.997 703.667 262.363 702.167 274.554L705.145 274.92ZM702.362 237.359C698.977 225.144 693.219 213.714 685.417 203.723L683.053 205.57C690.612 215.25 696.191 226.324 699.471 238.161L702.362 237.359ZM685.417 203.723C677.615 193.732 667.922 185.376 656.89 179.132L655.413 181.742C666.101 187.793 675.493 195.889 683.053 205.57L685.417 203.723ZM656.89 179.132C645.859 172.887 633.706 168.876 621.124 167.329L620.758 170.306C632.948 171.806 644.724 175.692 655.413 181.742L656.89 179.132Z" fill="#A8ABFF"/>
<path d="M618.498 155.999L622.009 165.488L631.498 168.999L622.009 172.51L618.498 181.999L614.987 172.51L605.498 168.999L614.987 165.488L618.498 155.999Z" fill="#A8ABFF"/>
<rect x="43.7463" y="57.751" width="183" height="183" rx="91.5" transform="rotate(10.9294 43.7463 57.751)" fill="#F5ECFF"/>
<path d="M66.7426 160.027L61.9783 160.027L61.9783 144.589L66.9536 144.589C68.4513 144.589 69.7328 144.898 70.7982 145.516C71.8636 146.129 72.6803 147.011 73.2482 148.162C73.816 149.308 74.1 150.68 74.1 152.278C74.1 153.886 73.8135 155.271 73.2406 156.432C72.6677 157.587 71.8335 158.477 70.7379 159.1C69.6423 159.718 68.3105 160.027 66.7426 160.027ZM63.8478 158.369L66.6219 158.369C67.8984 158.369 68.9563 158.123 69.7956 157.63C70.6349 157.138 71.2605 156.437 71.6726 155.527C72.0847 154.617 72.2908 153.534 72.2908 152.278C72.2908 151.032 72.0872 149.959 71.6802 149.059C71.2731 148.154 70.665 147.461 69.8559 146.978C69.0468 146.491 68.0392 146.247 66.833 146.247L63.8478 146.247L63.8478 158.369ZM81.8494 160.269C80.7337 160.269 79.7713 160.022 78.9622 159.53C78.1581 159.032 77.5375 158.339 77.1003 157.449C76.6681 156.555 76.452 155.514 76.452 154.328C76.452 153.142 76.6681 152.097 77.1003 151.192C77.5375 150.283 78.1456 149.574 78.9245 149.067C79.7085 148.554 80.6232 148.298 81.6685 148.298C82.2716 148.298 82.8671 148.398 83.4551 148.599C84.0431 148.8 84.5783 149.127 85.0608 149.579C85.5432 150.026 85.9277 150.619 86.2141 151.358C86.5006 152.097 86.6438 153.007 86.6438 154.087L86.6438 154.841L77.7184 154.841L77.7184 153.303L84.8346 153.303C84.8346 152.65 84.7039 152.067 84.4426 151.554C84.1863 151.042 83.8194 150.637 83.342 150.341C82.8696 150.044 82.3118 149.896 81.6685 149.896C80.9599 149.896 80.3468 150.072 79.8291 150.423C79.3165 150.77 78.922 151.223 78.6456 151.78C78.3692 152.338 78.231 152.936 78.231 153.575L78.231 154.6C78.231 155.474 78.3818 156.215 78.6833 156.824C78.9899 157.427 79.4145 157.886 79.9573 158.203C80.5001 158.515 81.1308 158.67 81.8494 158.67C82.3168 158.67 82.7389 158.605 83.1159 158.474C83.4978 158.339 83.827 158.138 84.1034 157.871C84.3798 157.6 84.5934 157.263 84.7441 156.861L86.4629 157.344C86.282 157.927 85.9779 158.439 85.5507 158.882C85.1236 159.319 84.5959 159.66 83.9677 159.907C83.3395 160.148 82.6334 160.269 81.8494 160.269ZM98.4658 148.448L94.184 160.027L92.3748 160.027L88.0931 148.448L90.0229 148.448L93.2191 157.675L93.3397 157.675L96.536 148.448L98.4658 148.448ZM105.254 160.269C104.138 160.269 103.176 160.022 102.367 159.53C101.563 159.032 100.942 158.339 100.505 157.449C100.073 156.555 99.8566 155.514 99.8566 154.328C99.8566 153.142 100.073 152.097 100.505 151.192C100.942 150.283 101.55 149.574 102.329 149.067C103.113 148.554 104.028 148.298 105.073 148.298C105.676 148.298 106.272 148.398 106.86 148.599C107.448 148.8 107.983 149.127 108.465 149.579C108.948 150.026 109.332 150.619 109.619 151.358C109.905 152.097 110.048 153.007 110.048 154.087L110.048 154.841L101.123 154.841L101.123 153.303L108.239 153.303C108.239 152.65 108.109 152.067 107.847 151.554C107.591 151.042 107.224 150.637 106.747 150.341C106.274 150.044 105.716 149.896 105.073 149.896C104.365 149.896 103.751 150.072 103.234 150.423C102.721 150.77 102.327 151.223 102.05 151.78C101.774 152.338 101.636 152.936 101.636 153.575L101.636 154.6C101.636 155.474 101.786 156.215 102.088 156.824C102.395 157.427 102.819 157.886 103.362 158.203C103.905 158.515 104.535 158.67 105.254 158.67C105.721 158.67 106.144 158.605 106.521 158.474C106.902 158.339 107.232 158.138 107.508 157.871C107.784 157.6 107.998 157.263 108.149 156.861L109.868 157.344C109.687 157.927 109.383 158.439 108.955 158.882C108.528 159.319 108.001 159.66 107.372 159.907C106.744 160.148 106.038 160.269 105.254 160.269ZM114.534 144.589L114.534 160.027L112.755 160.027L112.755 144.589L114.534 144.589ZM122.496 160.269C121.451 160.269 120.534 160.02 119.745 159.522C118.961 159.025 118.348 158.329 117.905 157.434C117.468 156.54 117.25 155.494 117.25 154.298C117.25 153.092 117.468 152.039 117.905 151.14C118.348 150.24 118.961 149.541 119.745 149.044C120.534 148.546 121.451 148.298 122.496 148.298C123.542 148.298 124.456 148.546 125.24 149.044C126.029 149.541 126.642 150.24 127.08 151.14C127.522 152.039 127.743 153.092 127.743 154.298C127.743 155.494 127.522 156.54 127.08 157.434C126.642 158.329 126.029 159.025 125.24 159.522C124.456 160.02 123.542 160.269 122.496 160.269ZM122.496 158.67C123.29 158.67 123.944 158.467 124.456 158.06C124.969 157.653 125.348 157.118 125.594 156.454C125.841 155.791 125.964 155.072 125.964 154.298C125.964 153.524 125.841 152.803 125.594 152.135C125.348 151.466 124.969 150.926 124.456 150.514C123.944 150.102 123.29 149.896 122.496 149.896C121.702 149.896 121.049 150.102 120.536 150.514C120.024 150.926 119.644 151.466 119.398 152.135C119.152 152.803 119.029 153.524 119.029 154.298C119.029 155.072 119.152 155.791 119.398 156.454C119.644 157.118 120.024 157.653 120.536 158.06C121.049 158.467 121.702 158.67 122.496 158.67ZM130.459 164.369L130.459 148.448L132.177 148.448L132.177 150.288L132.388 150.288C132.519 150.087 132.7 149.83 132.931 149.519C133.167 149.202 133.504 148.921 133.941 148.675C134.384 148.423 134.982 148.298 135.735 148.298C136.71 148.298 137.57 148.541 138.314 149.029C139.057 149.516 139.638 150.207 140.055 151.102C140.472 151.996 140.681 153.052 140.681 154.268C140.681 155.494 140.472 156.557 140.055 157.457C139.638 158.351 139.06 159.045 138.321 159.537C137.582 160.025 136.731 160.269 135.766 160.269C135.022 160.269 134.426 160.145 133.979 159.899C133.532 159.648 133.187 159.364 132.946 159.047C132.705 158.726 132.519 158.459 132.388 158.248L132.238 158.248L132.238 164.369L130.459 164.369ZM132.207 154.238C132.207 155.112 132.336 155.884 132.592 156.552C132.848 157.216 133.223 157.736 133.715 158.113C134.208 158.484 134.811 158.67 135.524 158.67C136.268 158.67 136.889 158.474 137.386 158.082C137.889 157.685 138.266 157.153 138.517 156.484C138.773 155.811 138.902 155.062 138.902 154.238C138.902 153.424 138.776 152.69 138.525 152.037C138.278 151.378 137.904 150.858 137.401 150.476C136.904 150.089 136.278 149.896 135.524 149.896C134.801 149.896 134.193 150.079 133.7 150.446C133.208 150.808 132.836 151.316 132.584 151.969C132.333 152.617 132.207 153.373 132.207 154.238ZM143.394 160.027L143.394 148.448L145.173 148.448L145.173 160.027L143.394 160.027ZM144.299 146.519C143.952 146.519 143.653 146.401 143.402 146.164C143.156 145.928 143.033 145.644 143.033 145.312C143.033 144.981 143.156 144.697 143.402 144.461C143.653 144.224 143.952 144.106 144.299 144.106C144.646 144.106 144.942 144.224 145.189 144.461C145.44 144.697 145.565 144.981 145.565 145.312C145.565 145.644 145.44 145.928 145.189 146.164C144.942 146.401 144.646 146.519 144.299 146.519ZM150.211 153.062L150.211 160.027L148.432 160.027L148.432 148.448L150.151 148.448L150.151 150.258L150.301 150.258C150.573 149.67 150.985 149.197 151.538 148.84C152.091 148.479 152.804 148.298 153.679 148.298C154.463 148.298 155.149 148.458 155.737 148.78C156.325 149.097 156.782 149.579 157.109 150.227C157.435 150.871 157.599 151.685 157.599 152.67L157.599 160.027L155.819 160.027L155.819 152.791C155.819 151.881 155.583 151.172 155.111 150.665C154.638 150.152 153.99 149.896 153.166 149.896C152.598 149.896 152.091 150.019 151.643 150.265C151.201 150.511 150.852 150.871 150.595 151.343C150.339 151.816 150.211 152.388 150.211 153.062ZM165.523 164.611C164.664 164.611 163.925 164.5 163.307 164.279C162.689 164.063 162.174 163.776 161.762 163.42C161.355 163.068 161.03 162.691 160.789 162.289L162.206 161.294C162.367 161.505 162.571 161.746 162.817 162.017C163.063 162.294 163.4 162.533 163.827 162.734C164.259 162.94 164.825 163.043 165.523 163.043C166.458 163.043 167.229 162.817 167.837 162.364C168.446 161.912 168.75 161.203 168.75 160.238L168.75 157.886L168.599 157.886C168.468 158.098 168.282 158.359 168.041 158.67C167.805 158.977 167.463 159.251 167.016 159.492C166.574 159.728 165.976 159.846 165.222 159.846C164.287 159.846 163.448 159.625 162.704 159.183C161.965 158.741 161.38 158.098 160.947 157.253C160.52 156.409 160.307 155.384 160.307 154.178C160.307 152.992 160.515 151.959 160.932 151.079C161.349 150.195 161.93 149.511 162.674 149.029C163.418 148.541 164.277 148.298 165.252 148.298C166.006 148.298 166.604 148.423 167.046 148.675C167.493 148.921 167.835 149.202 168.071 149.519C168.312 149.83 168.498 150.087 168.629 150.288L168.81 150.288L168.81 148.448L170.529 148.448L170.529 160.359C170.529 161.354 170.303 162.163 169.85 162.786C169.403 163.415 168.8 163.874 168.041 164.166C167.287 164.462 166.448 164.611 165.523 164.611ZM165.463 158.248C166.177 158.248 166.78 158.085 167.272 157.758C167.765 157.432 168.139 156.962 168.395 156.349C168.652 155.736 168.78 155.002 168.78 154.147C168.78 153.313 168.654 152.577 168.403 151.939C168.152 151.3 167.78 150.8 167.287 150.439C166.795 150.077 166.187 149.896 165.463 149.896C164.709 149.896 164.081 150.087 163.578 150.469C163.081 150.851 162.706 151.363 162.455 152.007C162.209 152.65 162.086 153.363 162.086 154.147C162.086 154.952 162.211 155.663 162.463 156.281C162.719 156.894 163.096 157.376 163.593 157.728C164.096 158.075 164.719 158.248 165.463 158.248ZM80.9363 177.042L79.3382 177.494C79.2377 177.228 79.0894 176.969 78.8934 176.717C78.7025 176.461 78.4411 176.25 78.1094 176.084C77.7778 175.918 77.3531 175.835 76.8355 175.835C76.1269 175.835 75.5364 175.999 75.064 176.325C74.5966 176.647 74.3629 177.057 74.3629 177.554C74.3629 177.996 74.5237 178.346 74.8453 178.602C75.167 178.858 75.6695 179.072 76.353 179.243L78.0718 179.665C79.107 179.916 79.8784 180.301 80.386 180.818C80.8936 181.331 81.1474 181.992 81.1474 182.801C81.1474 183.464 80.9564 184.057 80.5745 184.58C80.1976 185.103 79.6699 185.515 78.9914 185.816C78.313 186.118 77.524 186.269 76.6244 186.269C75.4434 186.269 74.4659 186.012 73.692 185.5C72.918 184.987 72.428 184.238 72.222 183.253L73.9106 182.831C74.0714 183.454 74.3755 183.922 74.8227 184.233C75.275 184.545 75.8655 184.701 76.5942 184.701C77.4235 184.701 78.0818 184.525 78.5693 184.173C79.0618 183.816 79.308 183.389 79.308 182.891C79.308 182.489 79.1673 182.153 78.8859 181.881C78.6045 181.605 78.1723 181.399 77.5893 181.263L75.6595 180.811C74.5991 180.56 73.8201 180.17 73.3226 179.642C72.8301 179.11 72.5838 178.444 72.5838 177.645C72.5838 176.991 72.7673 176.413 73.1341 175.911C73.506 175.408 74.0111 175.014 74.6493 174.727C75.2926 174.441 76.0213 174.298 76.8355 174.298C77.9813 174.298 78.8809 174.549 79.5342 175.051C80.1925 175.554 80.6599 176.217 80.9363 177.042ZM88.5293 186.269C87.484 186.269 86.5669 186.02 85.7778 185.522C84.9938 185.025 84.3807 184.329 83.9385 183.434C83.5013 182.54 83.2826 181.494 83.2826 180.298C83.2826 179.092 83.5013 178.039 83.9385 177.14C84.3807 176.24 84.9938 175.541 85.7778 175.044C86.5669 174.546 87.484 174.298 88.5293 174.298C89.5747 174.298 90.4893 174.546 91.2733 175.044C92.0623 175.541 92.6754 176.24 93.1127 177.14C93.5549 178.039 93.776 179.092 93.776 180.298C93.776 181.494 93.5549 182.54 93.1127 183.434C92.6754 184.329 92.0623 185.025 91.2733 185.522C90.4893 186.02 89.5747 186.269 88.5293 186.269ZM88.5293 184.67C89.3234 184.67 89.9767 184.467 90.4893 184.06C91.0019 183.653 91.3813 183.118 91.6276 182.454C91.8739 181.791 91.997 181.072 91.997 180.298C91.997 179.524 91.8739 178.803 91.6276 178.135C91.3813 177.466 91.0019 176.926 90.4893 176.514C89.9767 176.102 89.3234 175.896 88.5293 175.896C87.7353 175.896 87.082 176.102 86.5694 176.514C86.0568 176.926 85.6773 177.466 85.4311 178.135C85.1848 178.803 85.0617 179.524 85.0617 180.298C85.0617 181.072 85.1848 181.791 85.4311 182.454C85.6773 183.118 86.0568 183.653 86.5694 184.06C87.082 184.467 87.7353 184.67 88.5293 184.67ZM98.2708 170.589L98.2708 186.027L96.4917 186.027L96.4917 170.589L98.2708 170.589ZM108.826 181.293L108.826 174.448L110.605 174.448L110.605 186.027L108.826 186.027L108.826 184.067L108.706 184.067C108.434 184.655 108.012 185.155 107.439 185.567C106.866 185.975 106.143 186.178 105.268 186.178C104.545 186.178 103.901 186.02 103.338 185.703C102.776 185.382 102.333 184.899 102.012 184.256C101.69 183.608 101.529 182.791 101.529 181.806L101.529 174.448L103.308 174.448L103.308 181.685C103.308 182.53 103.544 183.203 104.017 183.706C104.494 184.208 105.102 184.459 105.841 184.459C106.283 184.459 106.733 184.346 107.191 184.12C107.653 183.894 108.04 183.547 108.351 183.08C108.668 182.612 108.826 182.017 108.826 181.293ZM118.899 174.448L118.899 175.956L112.899 175.956L112.899 174.448L118.899 174.448ZM114.648 171.674L116.427 171.674L116.427 182.71C116.427 183.213 116.5 183.59 116.646 183.841C116.796 184.087 116.987 184.253 117.218 184.339C117.455 184.419 117.703 184.459 117.965 184.459C118.161 184.459 118.322 184.449 118.447 184.429C118.573 184.404 118.673 184.384 118.749 184.369L119.111 185.967C118.99 186.012 118.822 186.057 118.605 186.103C118.389 186.153 118.115 186.178 117.784 186.178C117.281 186.178 116.789 186.07 116.306 185.854C115.829 185.638 115.432 185.309 115.115 184.866C114.804 184.424 114.648 183.866 114.648 183.193L114.648 171.674ZM121.576 186.027L121.576 174.448L123.355 174.448L123.355 186.027L121.576 186.027ZM122.48 172.519C122.133 172.519 121.834 172.401 121.583 172.164C121.337 171.928 121.214 171.644 121.214 171.312C121.214 170.981 121.337 170.697 121.583 170.461C121.834 170.224 122.133 170.106 122.48 170.106C122.827 170.106 123.123 170.224 123.37 170.461C123.621 170.697 123.747 170.981 123.747 171.312C123.747 171.644 123.621 171.928 123.37 172.164C123.123 172.401 122.827 172.519 122.48 172.519ZM131.317 186.269C130.272 186.269 129.355 186.02 128.566 185.522C127.782 185.025 127.168 184.329 126.726 183.434C126.289 182.54 126.07 181.494 126.07 180.298C126.07 179.092 126.289 178.039 126.726 177.14C127.168 176.24 127.782 175.541 128.566 175.044C129.355 174.546 130.272 174.298 131.317 174.298C132.362 174.298 133.277 174.546 134.061 175.044C134.85 175.541 135.463 176.24 135.9 177.14C136.343 178.039 136.564 179.092 136.564 180.298C136.564 181.494 136.343 182.54 135.9 183.434C135.463 184.329 134.85 185.025 134.061 185.522C133.277 186.02 132.362 186.269 131.317 186.269ZM131.317 184.67C132.111 184.67 132.764 184.467 133.277 184.06C133.79 183.653 134.169 183.118 134.415 182.454C134.662 181.791 134.785 181.072 134.785 180.298C134.785 179.524 134.662 178.803 134.415 178.135C134.169 177.466 133.79 176.926 133.277 176.514C132.764 176.102 132.111 175.896 131.317 175.896C130.523 175.896 129.87 176.102 129.357 176.514C128.844 176.926 128.465 177.466 128.219 178.135C127.973 178.803 127.849 179.524 127.849 180.298C127.849 181.072 127.973 181.791 128.219 182.454C128.465 183.118 128.844 183.653 129.357 184.06C129.87 184.467 130.523 184.67 131.317 184.67ZM141.058 179.062L141.058 186.027L139.279 186.027L139.279 174.448L140.998 174.448L140.998 176.258L141.149 176.258C141.42 175.67 141.832 175.197 142.385 174.84C142.938 174.479 143.652 174.298 144.526 174.298C145.31 174.298 145.996 174.458 146.584 174.78C147.172 175.097 147.629 175.579 147.956 176.227C148.283 176.871 148.446 177.685 148.446 178.67L148.446 186.027L146.667 186.027L146.667 178.791C146.667 177.881 146.431 177.172 145.958 176.665C145.486 176.152 144.838 175.896 144.013 175.896C143.446 175.896 142.938 176.019 142.491 176.265C142.048 176.511 141.699 176.871 141.443 177.343C141.187 177.816 141.058 178.388 141.058 179.062ZM159.899 177.042L158.301 177.494C158.2 177.228 158.052 176.969 157.856 176.717C157.665 176.461 157.403 176.25 157.072 176.084C156.74 175.918 156.315 175.835 155.798 175.835C155.089 175.835 154.499 175.999 154.026 176.325C153.559 176.647 153.325 177.057 153.325 177.554C153.325 177.996 153.486 178.346 153.808 178.602C154.129 178.858 154.632 179.072 155.315 179.243L157.034 179.665C158.069 179.916 158.841 180.301 159.348 180.818C159.856 181.331 160.11 181.992 160.11 182.801C160.11 183.464 159.919 184.057 159.537 184.58C159.16 185.103 158.632 185.515 157.954 185.816C157.275 186.118 156.486 186.269 155.587 186.269C154.406 186.269 153.428 186.012 152.654 185.5C151.88 184.987 151.39 184.238 151.184 183.253L152.873 182.831C153.034 183.454 153.338 183.922 153.785 184.233C154.237 184.545 154.828 184.701 155.557 184.701C156.386 184.701 157.044 184.525 157.532 184.173C158.024 183.816 158.27 183.389 158.27 182.891C158.27 182.489 158.13 182.153 157.848 181.881C157.567 181.605 157.135 181.399 156.552 181.263L154.622 180.811C153.561 180.56 152.782 180.17 152.285 179.642C151.792 179.11 151.546 178.444 151.546 177.645C151.546 176.991 151.73 176.413 152.096 175.911C152.468 175.408 152.973 175.014 153.612 174.727C154.255 174.441 154.984 174.298 155.798 174.298C156.944 174.298 157.843 174.549 158.497 175.051C159.155 175.554 159.622 176.217 159.899 177.042Z" fill="#262633"/>
<path d="M206.083 182.285L216.434 168.398L199.231 166.377L206.083 182.285ZM205.883 146.584L204.413 146.885L204.413 146.885L205.883 146.584ZM192.036 113.677L190.794 114.517L190.794 114.517L192.036 113.677ZM166.651 88.5738L165.824 89.8256L166.651 88.5738ZM97.8898 75.2959L98.1906 76.7654L98.1906 76.7654L97.8898 75.2959ZM209.156 168.943C209.483 161.361 208.881 153.751 207.352 146.283L204.413 146.885C205.893 154.112 206.475 161.477 206.159 168.814L209.156 168.943ZM207.352 146.283C204.903 134.318 200.121 122.953 193.279 112.837L190.794 114.517C197.415 124.307 202.043 135.306 204.413 146.885L207.352 146.283ZM193.279 112.837C186.437 102.72 177.669 94.0502 167.477 87.3219L165.824 89.8256C175.688 96.3368 184.173 104.727 190.794 114.517L193.279 112.837ZM167.477 87.3219C157.284 80.5937 145.867 75.9389 133.875 73.6234L133.306 76.569C144.911 78.8098 155.961 83.3145 165.824 89.8256L167.477 87.3219ZM133.875 73.6234C121.884 71.3078 109.554 71.3768 97.5889 73.8264L98.1906 76.7654C109.769 74.3949 121.702 74.3281 133.306 76.569L133.875 73.6234ZM97.5889 73.8264C85.6242 76.276 74.2591 81.0583 64.1425 87.9001L65.8231 90.3852C75.6134 83.764 86.6118 79.136 98.1906 76.7654L97.5889 73.8264ZM64.1425 87.9001C54.0259 94.742 45.356 103.509 38.6278 113.702L41.1315 115.355C47.6427 105.491 56.0329 97.0063 65.8231 90.3852L64.1425 87.9001Z" fill="#CFAFF2"/>
<path d="M26.4736 118.543L35.1421 114.127L37.4327 104.672L41.8485 113.341L51.3034 115.631L42.6349 120.047L40.3444 129.502L35.9286 120.834L26.4736 118.543Z" fill="#CFAFF2"/>
<rect x="295.18" y="392.547" width="153" height="153" rx="76.5" transform="rotate(172.274 295.18 392.547)" fill="#F0E1FF"/>
<path d="M183.415 312.301L183.415 310.915L193.096 310.915L193.096 312.301L189.037 312.301L189.037 323.822L187.474 323.822L187.474 312.301L183.415 312.301ZM194.301 323.822L194.301 314.142L195.738 314.142L195.738 315.604L195.839 315.604C196.015 315.125 196.335 314.736 196.797 314.438C197.259 314.139 197.78 313.99 198.36 313.99C198.469 313.99 198.606 313.992 198.77 313.997C198.933 314.001 199.057 314.007 199.141 314.015L199.141 315.528C199.091 315.515 198.975 315.497 198.795 315.471C198.618 315.442 198.431 315.427 198.234 315.427C197.763 315.427 197.343 315.526 196.973 315.723C196.608 315.917 196.318 316.186 196.104 316.53C195.893 316.871 195.788 317.259 195.788 317.696L195.788 323.822L194.301 323.822ZM202.157 327.453C201.905 327.453 201.68 327.432 201.483 327.39C201.285 327.352 201.149 327.314 201.073 327.276L201.451 325.965C201.813 326.058 202.132 326.091 202.409 326.066C202.687 326.041 202.932 325.917 203.147 325.694C203.365 325.476 203.565 325.121 203.745 324.629L204.023 323.873L200.443 314.142L202.056 314.142L204.729 321.856L204.829 321.856L207.502 314.142L209.115 314.142L205.006 325.234C204.821 325.734 204.592 326.148 204.319 326.476C204.046 326.808 203.729 327.053 203.367 327.213C203.01 327.373 202.607 327.453 202.157 327.453ZM211.078 323.822L211.078 314.142L212.566 314.142L212.566 323.822L211.078 323.822ZM211.835 312.528C211.545 312.528 211.295 312.429 211.085 312.232C210.879 312.034 210.776 311.797 210.776 311.52C210.776 311.242 210.879 311.005 211.085 310.807C211.295 310.61 211.545 310.511 211.835 310.511C212.125 310.511 212.373 310.61 212.578 310.807C212.789 311.005 212.894 311.242 212.894 311.52C212.894 311.797 212.789 312.034 212.578 312.232C212.373 312.429 212.125 312.528 211.835 312.528ZM216.777 317.999L216.777 323.822L215.29 323.822L215.29 314.142L216.727 314.142L216.727 315.654L216.853 315.654C217.08 315.163 217.425 314.768 217.887 314.469C218.349 314.167 218.946 314.015 219.677 314.015C220.332 314.015 220.906 314.15 221.397 314.419C221.889 314.684 222.271 315.087 222.544 315.629C222.817 316.167 222.954 316.847 222.954 317.671L222.954 323.822L221.467 323.822L221.467 317.772C221.467 317.011 221.269 316.419 220.874 315.994C220.479 315.566 219.937 315.352 219.248 315.352C218.773 315.352 218.349 315.455 217.975 315.66C217.605 315.866 217.313 316.167 217.099 316.562C216.885 316.957 216.777 317.436 216.777 317.999ZM229.58 327.654C228.861 327.654 228.243 327.562 227.727 327.377C227.21 327.196 226.779 326.957 226.435 326.658C226.094 326.364 225.823 326.049 225.622 325.713L226.806 324.881C226.941 325.058 227.111 325.259 227.317 325.486C227.523 325.717 227.804 325.917 228.161 326.085C228.523 326.257 228.996 326.343 229.58 326.343C230.361 326.343 231.006 326.154 231.514 325.776C232.023 325.398 232.277 324.805 232.277 323.999L232.277 322.032L232.151 322.032C232.042 322.209 231.886 322.427 231.685 322.688C231.487 322.944 231.201 323.173 230.827 323.375C230.458 323.572 229.958 323.671 229.327 323.671C228.546 323.671 227.844 323.486 227.222 323.116C226.605 322.747 226.115 322.209 225.754 321.503C225.397 320.797 225.218 319.94 225.218 318.931C225.218 317.94 225.393 317.076 225.741 316.341C226.09 315.602 226.575 315.03 227.197 314.627C227.819 314.219 228.538 314.015 229.353 314.015C229.983 314.015 230.483 314.121 230.853 314.331C231.227 314.537 231.512 314.772 231.71 315.037C231.912 315.297 232.067 315.511 232.176 315.679L232.327 315.679L232.327 314.142L233.764 314.142L233.764 324.1C233.764 324.932 233.575 325.608 233.197 326.129C232.823 326.654 232.319 327.039 231.685 327.282C231.054 327.53 230.353 327.654 229.58 327.654ZM229.529 322.335C230.126 322.335 230.63 322.198 231.042 321.925C231.454 321.652 231.767 321.259 231.981 320.747C232.195 320.234 232.302 319.621 232.302 318.906C232.302 318.209 232.197 317.593 231.987 317.06C231.777 316.526 231.466 316.108 231.054 315.805C230.643 315.503 230.134 315.352 229.529 315.352C228.899 315.352 228.374 315.511 227.954 315.831C227.538 316.15 227.225 316.579 227.014 317.116C226.809 317.654 226.706 318.251 226.706 318.906C226.706 319.579 226.811 320.173 227.021 320.69C227.235 321.203 227.55 321.606 227.966 321.9C228.386 322.19 228.907 322.335 229.529 322.335ZM179.415 337.31L178.079 337.688C177.995 337.465 177.871 337.249 177.707 337.039C177.548 336.824 177.329 336.648 177.052 336.509C176.774 336.371 176.419 336.301 175.987 336.301C175.394 336.301 174.9 336.438 174.505 336.711C174.115 336.98 173.919 337.322 173.919 337.738C173.919 338.108 174.054 338.4 174.323 338.614C174.592 338.829 175.012 339.007 175.583 339.15L177.02 339.503C177.886 339.713 178.531 340.034 178.955 340.467C179.379 340.896 179.592 341.448 179.592 342.125C179.592 342.679 179.432 343.175 179.113 343.612C178.798 344.049 178.356 344.394 177.789 344.646C177.222 344.898 176.562 345.024 175.81 345.024C174.823 345.024 174.005 344.81 173.358 344.381C172.711 343.953 172.302 343.326 172.129 342.503L173.541 342.15C173.676 342.671 173.93 343.062 174.304 343.322C174.682 343.583 175.176 343.713 175.785 343.713C176.478 343.713 177.029 343.566 177.436 343.272C177.848 342.974 178.054 342.616 178.054 342.2C178.054 341.864 177.936 341.583 177.701 341.356C177.466 341.125 177.104 340.952 176.617 340.839L175.003 340.461C174.117 340.251 173.466 339.925 173.05 339.484C172.638 339.039 172.432 338.482 172.432 337.814C172.432 337.268 172.585 336.784 172.892 336.364C173.203 335.944 173.625 335.614 174.159 335.375C174.697 335.135 175.306 335.015 175.987 335.015C176.945 335.015 177.697 335.226 178.243 335.646C178.793 336.066 179.184 336.621 179.415 337.31ZM185.763 345.024C184.889 345.024 184.123 344.816 183.463 344.4C182.808 343.984 182.295 343.402 181.925 342.654C181.56 341.906 181.377 341.032 181.377 340.032C181.377 339.024 181.56 338.144 181.925 337.392C182.295 336.639 182.808 336.055 183.463 335.639C184.123 335.223 184.889 335.015 185.763 335.015C186.637 335.015 187.402 335.223 188.058 335.639C188.717 336.055 189.23 336.639 189.595 337.392C189.965 338.144 190.15 339.024 190.15 340.032C190.15 341.032 189.965 341.906 189.595 342.654C189.23 343.402 188.717 343.984 188.058 344.4C187.402 344.816 186.637 345.024 185.763 345.024ZM185.763 343.688C186.427 343.688 186.973 343.518 187.402 343.177C187.831 342.837 188.148 342.389 188.354 341.835C188.56 341.28 188.663 340.679 188.663 340.032C188.663 339.385 188.56 338.782 188.354 338.223C188.148 337.665 187.831 337.213 187.402 336.868C186.973 336.524 186.427 336.352 185.763 336.352C185.1 336.352 184.553 336.524 184.125 336.868C183.696 337.213 183.379 337.665 183.173 338.223C182.967 338.782 182.864 339.385 182.864 340.032C182.864 340.679 182.967 341.28 183.173 341.835C183.379 342.389 183.696 342.837 184.125 343.177C184.553 343.518 185.1 343.688 185.763 343.688ZM193.908 331.915L193.908 344.822L192.42 344.822L192.42 331.915L193.908 331.915ZM202.733 340.864L202.733 335.142L204.22 335.142L204.22 344.822L202.733 344.822L202.733 343.184L202.632 343.184C202.405 343.675 202.052 344.093 201.573 344.438C201.094 344.778 200.489 344.948 199.758 344.948C199.153 344.948 198.615 344.816 198.145 344.551C197.674 344.282 197.304 343.879 197.036 343.341C196.767 342.799 196.632 342.116 196.632 341.293L196.632 335.142L198.12 335.142L198.12 341.192C198.12 341.898 198.317 342.461 198.712 342.881C199.111 343.301 199.62 343.511 200.237 343.511C200.607 343.511 200.983 343.417 201.365 343.228C201.752 343.039 202.075 342.749 202.336 342.358C202.601 341.967 202.733 341.469 202.733 340.864ZM211.155 335.142L211.155 336.402L206.138 336.402L206.138 335.142L211.155 335.142ZM207.6 332.822L209.088 332.822L209.088 342.049C209.088 342.469 209.149 342.784 209.27 342.995C209.396 343.2 209.556 343.339 209.749 343.41C209.947 343.478 210.155 343.511 210.373 343.511C210.537 343.511 210.672 343.503 210.777 343.486C210.882 343.465 210.966 343.448 211.029 343.436L211.331 344.772C211.23 344.81 211.09 344.847 210.909 344.885C210.728 344.927 210.499 344.948 210.222 344.948C209.802 344.948 209.39 344.858 208.987 344.677C208.588 344.497 208.256 344.221 207.991 343.852C207.73 343.482 207.6 343.016 207.6 342.453L207.6 332.822ZM213.392 344.822L213.392 335.142L214.88 335.142L214.88 344.822L213.392 344.822ZM214.149 333.528C213.859 333.528 213.609 333.429 213.399 333.232C213.193 333.034 213.09 332.797 213.09 332.52C213.09 332.242 213.193 332.005 213.399 331.807C213.609 331.61 213.859 331.511 214.149 331.511C214.438 331.511 214.686 331.61 214.892 331.807C215.102 332.005 215.207 332.242 215.207 332.52C215.207 332.797 215.102 333.034 214.892 333.232C214.686 333.429 214.438 333.528 214.149 333.528ZM221.537 345.024C220.663 345.024 219.896 344.816 219.236 344.4C218.581 343.984 218.068 343.402 217.698 342.654C217.333 341.906 217.15 341.032 217.15 340.032C217.15 339.024 217.333 338.144 217.698 337.392C218.068 336.639 218.581 336.055 219.236 335.639C219.896 335.223 220.663 335.015 221.537 335.015C222.411 335.015 223.175 335.223 223.831 335.639C224.491 336.055 225.003 336.639 225.369 337.392C225.738 338.144 225.923 339.024 225.923 340.032C225.923 341.032 225.738 341.906 225.369 342.654C225.003 343.402 224.491 343.984 223.831 344.4C223.175 344.816 222.411 345.024 221.537 345.024ZM221.537 343.688C222.201 343.688 222.747 343.518 223.175 343.177C223.604 342.837 223.921 342.389 224.127 341.835C224.333 341.28 224.436 340.679 224.436 340.032C224.436 339.385 224.333 338.782 224.127 338.223C223.921 337.665 223.604 337.213 223.175 336.868C222.747 336.524 222.201 336.352 221.537 336.352C220.873 336.352 220.327 336.524 219.898 336.868C219.469 337.213 219.152 337.665 218.946 338.223C218.74 338.782 218.638 339.385 218.638 340.032C218.638 340.679 218.74 341.28 218.946 341.835C219.152 342.389 219.469 342.837 219.898 343.177C220.327 343.518 220.873 343.688 221.537 343.688ZM229.681 338.999L229.681 344.822L228.194 344.822L228.194 335.142L229.631 335.142L229.631 336.654L229.757 336.654C229.984 336.163 230.328 335.768 230.79 335.469C231.253 335.167 231.849 335.015 232.58 335.015C233.236 335.015 233.809 335.15 234.301 335.419C234.793 335.684 235.175 336.087 235.448 336.629C235.721 337.167 235.858 337.847 235.858 338.671L235.858 344.822L234.37 344.822L234.37 338.772C234.37 338.011 234.173 337.419 233.778 336.994C233.383 336.566 232.841 336.352 232.152 336.352C231.677 336.352 231.253 336.455 230.879 336.66C230.509 336.866 230.217 337.167 230.003 337.562C229.788 337.957 229.681 338.436 229.681 338.999ZM245.433 337.31L244.097 337.688C244.013 337.465 243.889 337.249 243.725 337.039C243.565 336.824 243.347 336.648 243.069 336.509C242.792 336.371 242.437 336.301 242.004 336.301C241.412 336.301 240.918 336.438 240.523 336.711C240.132 336.98 239.937 337.322 239.937 337.738C239.937 338.108 240.071 338.4 240.34 338.614C240.609 338.829 241.029 339.007 241.601 339.15L243.038 339.503C243.903 339.713 244.548 340.034 244.973 340.467C245.397 340.896 245.609 341.448 245.609 342.125C245.609 342.679 245.45 343.175 245.13 343.612C244.815 344.049 244.374 344.394 243.807 344.646C243.24 344.898 242.58 345.024 241.828 345.024C240.84 345.024 240.023 344.81 239.376 344.381C238.729 343.953 238.319 343.326 238.147 342.503L239.559 342.15C239.693 342.671 239.948 343.062 240.321 343.322C240.7 343.583 241.193 343.713 241.803 343.713C242.496 343.713 243.046 343.566 243.454 343.272C243.866 342.974 244.072 342.616 244.072 342.2C244.072 341.864 243.954 341.583 243.719 341.356C243.483 341.125 243.122 340.952 242.635 340.839L241.021 340.461C240.135 340.251 239.483 339.925 239.067 339.484C238.656 339.039 238.45 338.482 238.45 337.814C238.45 337.268 238.603 336.784 238.91 336.364C239.221 335.944 239.643 335.614 240.177 335.375C240.714 335.135 241.324 335.015 242.004 335.015C242.962 335.015 243.714 335.226 244.261 335.646C244.811 336.066 245.202 336.621 245.433 337.31Z" fill="#262633"/>
<path d="M133.285 337.311L128.159 353.856L145.05 350.022L133.285 337.311ZM142.991 365.537L141.695 366.293L141.695 366.293L142.991 365.537ZM162.76 387.901L161.851 389.095L161.851 389.095L162.76 387.901ZM189.582 400.997L189.2 402.448L189.2 402.448L189.582 400.997ZM269.965 373.357L271.159 374.265L269.965 373.357ZM134.845 350.935C136.564 356.273 138.858 361.424 141.695 366.293L144.287 364.782C141.559 360.101 139.353 355.148 137.7 350.015L134.845 350.935ZM141.695 366.293C146.851 375.143 153.7 382.891 161.851 389.095L163.668 386.708C155.831 380.743 149.245 373.292 144.287 364.782L141.695 366.293ZM161.851 389.095C170.002 395.298 179.295 399.836 189.2 402.448L189.965 399.547C180.441 397.035 171.506 392.672 163.668 386.708L161.851 389.095ZM189.2 402.448C199.104 405.06 209.426 405.695 219.576 404.318L219.173 401.345C209.413 402.67 199.488 402.058 189.965 399.547L189.2 402.448ZM219.576 404.318C229.727 402.941 239.506 399.578 248.357 394.422L246.846 391.83C238.336 396.788 228.933 400.021 219.173 401.345L219.576 404.318ZM248.357 394.422C257.207 389.265 264.955 382.416 271.159 374.265L268.771 372.448C262.807 380.286 255.356 386.871 246.846 391.83L248.357 394.422ZM271.159 374.265C277.362 366.114 281.899 356.821 284.511 346.917L281.611 346.152C279.099 355.675 274.736 364.611 268.771 372.448L271.159 374.265Z" fill="#BE7DFF"/>
<path d="M278.873 353.66L278.674 345.88L272.639 340.966L280.419 340.767L285.332 334.732L285.531 342.512L291.567 347.426L283.787 347.624L278.873 353.66Z" fill="#BE7DFF"/>
</svg>
