<svg width="120" height="96" viewBox="0 0 120 96" fill="none" xmlns="http://www.w3.org/2000/svg">
<path d="M0.742188 43.1855L3.45117 22.4785C3.52539 21.4889 3.58724 20.9076 3.63672 20.7344L3.78516 19.6582H4.52734C4.52734 20.2767 4.45312 21.0931 4.30469 22.1074C3.63672 27.1048 2.99349 32.4857 2.375 38.25C2.39974 38.2253 2.48633 38.151 2.63477 38.0273C2.7832 37.8789 2.86979 37.7923 2.89453 37.7676C2.94401 37.7181 3.0306 37.6439 3.1543 37.5449C3.27799 37.446 3.36458 37.3841 3.41406 37.3594C3.46354 37.3099 3.53776 37.248 3.63672 37.1738C3.76042 37.0996 3.85938 37.0501 3.93359 37.0254C4.30469 36.9017 4.60156 36.8398 4.82422 36.8398C5.56641 36.8398 6.24674 37.1367 6.86523 37.7305C7.50846 38.2995 8.01562 38.9303 8.38672 39.623C8.78255 40.291 9.31445 40.9219 9.98242 41.5156C10.6751 42.0846 11.4421 42.3691 12.2832 42.3691C13.6191 42.3691 15.0664 41.6517 16.625 40.2168C18.2083 38.7572 19.5072 37.0749 20.5215 35.1699C21.5358 33.265 22.043 31.6569 22.043 30.3457C22.043 30.321 22.0306 30.2839 22.0059 30.2344C22.0059 30.1849 22.0059 30.1602 22.0059 30.1602C20.9421 31.1745 19.8906 31.9043 18.8516 32.3496C17.8372 32.7702 16.6374 32.9805 15.252 32.9805C13.8913 32.9805 12.7285 32.7331 11.7637 32.2383C10.7988 31.7188 10.0443 31.0013 9.5 30.0859C8.48568 28.3542 7.97852 26.2142 7.97852 23.666C7.97852 21.4147 8.51042 19.151 9.57422 16.875C10.1185 15.737 10.8607 14.8092 11.8008 14.0918C12.7656 13.3496 13.8913 12.9785 15.1777 12.9785C16.4642 12.9785 17.6641 13.3991 18.7773 14.2402C19.9154 15.0566 20.806 16.1081 21.4492 17.3945C22.7604 20.0664 23.416 22.7507 23.416 25.4473C23.416 25.571 23.416 25.6823 23.416 25.7812C23.416 27.8346 22.9954 30.1107 22.1543 32.6094C21.3379 35.1081 20.1999 37.3346 18.7402 39.2891C17.2806 41.2188 15.5859 42.4681 13.6562 43.0371C13.2109 43.1608 12.7533 43.2227 12.2832 43.2227C10.7741 43.2227 9.21549 42.5052 7.60742 41.0703C7.43424 40.8477 7.22396 40.526 6.97656 40.1055C6.33333 39.0664 5.71484 38.3737 5.12109 38.0273C4.94792 37.9036 4.84896 37.8542 4.82422 37.8789C4.23047 38.0273 3.73568 38.3984 3.33984 38.9922C2.94401 39.5859 2.65951 40.1797 2.48633 40.7734C2.04102 42.3815 1.45964 43.1855 0.742188 43.1855ZM8.98047 24.1113C8.98047 26.3626 9.5 28.2305 10.5391 29.7148C11.6029 31.1992 13.2604 31.9414 15.5117 31.9414C15.8086 31.9661 16.1055 31.9785 16.4023 31.9785C18.9258 31.9785 20.6699 30.8405 21.6348 28.5645C22.1048 27.4264 22.3398 26.2142 22.3398 24.9277C22.3398 23.6413 22.1296 22.2806 21.709 20.8457C20.8926 18.0007 19.5319 15.9349 17.627 14.6484C16.9095 14.1536 16.1549 13.832 15.3633 13.6836C14.25 13.6836 13.2604 14.0423 12.3945 14.7598C11.5286 15.4525 10.8607 16.3431 10.3906 17.4316C9.45052 19.6087 8.98047 21.8353 8.98047 24.1113ZM32.1738 33.5742C31.4564 35.4049 31.0977 37.112 31.0977 38.6953C31.0977 41.3177 32.5202 42.6289 35.3652 42.6289C36.0827 42.5299 36.6146 42.3815 36.9609 42.1836C37.332 41.9857 37.7279 41.6517 38.1484 41.1816C38.569 40.6868 38.9772 40.2786 39.373 39.957H39.5586C39.4349 41.3424 38.9525 42.2826 38.1113 42.7773C37.2949 43.2474 36.1693 43.4824 34.7344 43.4824C31.6419 43.4824 29.972 42.1836 29.7246 39.5859C29.6009 40.2292 29.0319 40.9837 28.0176 41.8496C27.028 42.6908 26.1374 43.1113 25.3457 43.1113C25.2962 43.1113 25.2344 43.1113 25.1602 43.1113C23.6263 42.6908 22.8594 41.7754 22.8594 40.3652C22.8594 38.5345 23.8118 36.7533 25.7168 35.0215C27.2012 33.6608 28.6484 32.9805 30.0586 32.9805C30.8503 32.9805 31.5553 33.1784 32.1738 33.5742ZM24.0098 40.1797C24.0098 40.5755 24.0221 40.8971 24.0469 41.1445C24.0964 41.3672 24.2201 41.5775 24.418 41.7754C24.6406 41.9733 24.9499 42.0723 25.3457 42.0723C26.4342 42.0228 27.5228 41.1569 28.6113 39.4746C29.7246 37.7676 30.3184 36.3079 30.3926 35.0957C29.9967 34.6009 29.4525 34.3535 28.7598 34.3535C27.8691 34.3535 26.9414 34.9225 25.9766 36.0605C25.0117 37.1986 24.3561 38.5716 24.0098 40.1797ZM46.2012 39.1406C46.2012 38.6953 46.2012 37.9284 46.2012 36.8398C46.2259 35.7266 46.2383 34.7741 46.2383 33.9824C45.5456 34.1309 44.5312 35.0215 43.1953 36.6543C41.8841 38.2871 41.1667 39.1406 41.043 39.2148C40.0781 40.5013 39.3236 41.4167 38.7793 41.9609C38.5566 42.2578 38.1979 42.4062 37.7031 42.4062V41.5898L39.2988 36.4316C39.2988 34.6257 39.6081 33.2897 40.2266 32.4238C40.3997 32.1764 40.5605 32.0527 40.709 32.0527C40.9564 32.0527 41.0801 32.4733 41.0801 33.3145C41.0801 34.1309 40.9564 35.0462 40.709 36.0605C40.4616 37.0501 40.3379 37.8789 40.3379 38.5469C40.5358 38.349 41.1296 37.6562 42.1191 36.4688C43.1087 35.2812 43.7025 34.5885 43.9004 34.3906C44.0736 34.2917 44.3704 34.0443 44.791 33.6484C45.6816 32.8568 46.4609 32.4609 47.1289 32.4609C47.5 32.4609 47.735 32.5846 47.834 32.832C47.8587 33.1042 47.8711 33.5495 47.8711 34.168C47.8711 34.7617 47.7721 35.7142 47.5742 37.0254C47.3763 38.3118 47.265 39.3385 47.2402 40.1055C47.2402 41.2682 47.7227 41.8496 48.6875 41.8496C49.3802 41.8496 50.0482 41.6641 50.6914 41.293C51.3346 40.8971 51.8542 40.4642 52.25 39.9941C52.6458 39.4993 53.1035 38.9427 53.623 38.3242C54.1426 37.681 54.6003 37.2109 54.9961 36.9141V37.2852C54.9961 38.4727 54.2292 39.7096 52.6953 40.9961C51.1615 42.2578 49.7637 42.8887 48.502 42.8887H47.2773C46.9062 42.6413 46.6589 42.4062 46.5352 42.1836C46.4362 41.9609 46.362 41.8001 46.3125 41.7012C46.263 41.6022 46.2259 41.4538 46.2012 41.2559C46.2012 41.0332 46.2012 40.8724 46.2012 40.7734V39.1406ZM54.2168 35.0586L54.3652 34.5762C54.86 32.9928 55.2806 32.2012 55.627 32.2012C56.1217 32.2012 56.3691 32.3867 56.3691 32.7578C56.3691 32.832 56.3568 32.9062 56.332 32.9805C55.3919 35.2812 54.9219 37.4707 54.9219 39.5488C54.9219 40.4889 55.1569 41.2806 55.627 41.9238C56.097 42.5423 56.8145 42.8516 57.7793 42.8516C60.2038 41.9115 61.7253 41.4414 62.3438 41.4414C62.5417 41.4414 62.6406 41.4909 62.6406 41.5898C62.6406 41.8867 61.9974 42.3197 60.7109 42.8887C59.4245 43.4329 58.4102 43.7051 57.668 43.7051C56.9505 43.7051 56.4062 43.6432 56.0352 43.5195C55.6641 43.4206 55.3919 43.3216 55.2188 43.2227C55.0456 43.1237 54.8353 42.9134 54.5879 42.5918C54.3405 42.2454 54.1797 41.8001 54.1055 41.2559C54.0312 40.6868 53.9941 39.8828 53.9941 38.8438C53.9941 37.8047 54.0684 36.543 54.2168 35.0586ZM61.416 39.1035C61.3913 38.8809 61.3789 38.6706 61.3789 38.4727C61.3789 36.8893 61.8984 35.2565 62.9375 33.5742C64.0013 31.8919 65.362 31.0508 67.0195 31.0508C67.3411 31.0508 67.6009 31.1497 67.7988 31.3477C67.9967 31.5208 68.0957 31.8301 68.0957 32.2754C68.0957 32.696 67.972 33.2031 67.7246 33.7969C67.502 34.3659 67.1432 34.9473 66.6484 35.541C66.1784 36.1348 65.7702 36.6172 65.4238 36.9883C65.0775 37.3594 64.5827 37.8418 63.9395 38.4355C63.321 39.0293 62.9499 39.388 62.8262 39.5117C62.8014 39.7096 62.7891 39.821 62.7891 39.8457C62.7891 40.5137 63.1107 41.0332 63.7539 41.4043C64.3971 41.7754 65.0651 41.9609 65.7578 41.9609C67.4154 41.9609 68.7266 41.6641 69.6914 41.0703C70.681 40.4766 71.819 39.4746 73.1055 38.0645C73.3034 37.8171 73.4147 37.6191 73.4395 37.4707C73.4889 37.3223 73.625 37.1615 73.8477 36.9883C74.0951 37.0872 74.2188 37.3223 74.2188 37.6934C73.9714 38.4603 73.4766 39.2891 72.7344 40.1797C71.9922 41.0456 71.1139 41.7878 70.0996 42.4062C68.6895 43.2227 67.4896 43.6309 66.5 43.6309C65.5352 43.6309 64.5951 43.2969 63.6797 42.6289C62.7643 41.9609 62.0098 40.7858 61.416 39.1035ZM67.0938 32.4238C66.0299 32.4238 65.0404 32.9928 64.125 34.1309C63.2096 35.2689 62.752 36.3574 62.752 37.3965C62.752 37.7428 62.7767 37.9902 62.8262 38.1387C63.7415 37.6439 64.6816 36.8027 65.6465 35.6152C66.6113 34.403 67.0938 33.3392 67.0938 32.4238ZM73.6621 38.6953C73.7611 35.9245 74.5527 32.5599 76.0371 28.6016C77.5215 24.6432 78.7708 22.4909 79.7852 22.1445C80.082 22.1445 80.2923 22.429 80.416 22.998C80.5397 23.5671 80.6016 24.0371 80.6016 24.4082C80.6016 25.7441 80.3171 27.3275 79.748 29.1582C79.179 30.9642 78.5111 32.4238 77.7441 33.5371C77.4473 34.0319 77.0391 34.5514 76.5195 35.0957C76.0247 35.64 75.6413 36.1471 75.3691 36.6172C75.1217 37.0625 74.998 37.6315 74.998 38.3242C74.998 39.5612 75.332 40.5755 76 41.3672C76.6927 42.1589 77.6576 42.5547 78.8945 42.5547C80.9479 42.5547 82.2467 41.8496 82.791 40.4395H83.1992C83.1992 41.4043 82.7168 42.1712 81.752 42.7402C80.7871 43.3092 79.6986 43.5938 78.4863 43.5938C77.2741 43.5938 76.235 43.1361 75.3691 42.2207C74.5033 41.2806 73.9342 40.1055 73.6621 38.6953ZM79.6367 24.6309C79.4388 24.8535 79.1048 25.373 78.6348 26.1895C78.1895 27.0059 77.9297 27.5378 77.8555 27.7852C76.1979 32.1146 75.3691 34.4525 75.3691 34.7988C76.4082 34.0814 77.373 32.5846 78.2637 30.3086C79.1543 28.0078 79.612 26.1152 79.6367 24.6309ZM82.1602 39.1035C82.1354 38.8809 82.123 38.6706 82.123 38.4727C82.123 36.8893 82.6426 35.2565 83.6816 33.5742C84.7454 31.8919 86.1061 31.0508 87.7637 31.0508C88.0853 31.0508 88.3451 31.1497 88.543 31.3477C88.7409 31.5208 88.8398 31.8301 88.8398 32.2754C88.8398 32.696 88.7161 33.2031 88.4688 33.7969C88.2461 34.3659 87.8874 34.9473 87.3926 35.541C86.9225 36.1348 86.5143 36.6172 86.168 36.9883C85.8216 37.3594 85.3268 37.8418 84.6836 38.4355C84.0651 39.0293 83.694 39.388 83.5703 39.5117C83.5456 39.7096 83.5332 39.821 83.5332 39.8457C83.5332 40.5137 83.8548 41.0332 84.498 41.4043C85.1413 41.7754 85.8092 41.9609 86.502 41.9609C88.1595 41.9609 89.4707 41.6641 90.4355 41.0703C91.4251 40.4766 92.5632 39.4746 93.8496 38.0645C94.0475 37.8171 94.1589 37.6191 94.1836 37.4707C94.2331 37.3223 94.3691 37.1615 94.5918 36.9883C94.8392 37.0872 94.9629 37.3223 94.9629 37.6934C94.7155 38.4603 94.2207 39.2891 93.4785 40.1797C92.7363 41.0456 91.8581 41.7878 90.8438 42.4062C89.4336 43.2227 88.2337 43.6309 87.2441 43.6309C86.2793 43.6309 85.3392 43.2969 84.4238 42.6289C83.5085 41.9609 82.7539 40.7858 82.1602 39.1035ZM87.8379 32.4238C86.7741 32.4238 85.7845 32.9928 84.8691 34.1309C83.9538 35.2689 83.4961 36.3574 83.4961 37.3965C83.4961 37.7428 83.5208 37.9902 83.5703 38.1387C84.4857 37.6439 85.4258 36.8027 86.3906 35.6152C87.3555 34.403 87.8379 33.3392 87.8379 32.4238Z" fill="white"/>
<path d="M58.3451 24.8017V24.8017C57.9519 26.275 58.7708 27.7919 60.2182 28.2716L60.2497 28.2821L60.2176 28.2737C58.7407 27.8909 57.2109 28.7152 56.7181 30.1591V30.1591V30.1591C57.1113 28.6858 56.2924 27.1689 54.845 26.6892L54.8135 26.6787L54.8456 26.6871C56.3225 27.0699 57.8523 26.2456 58.3451 24.8017V24.8017Z" fill="#8BEAFF"/>
<path d="M77.3451 58.8017V58.8017C76.9519 60.275 77.7708 61.7919 79.2182 62.2716L79.2497 62.2821L79.2176 62.2737C77.7407 61.8909 76.2109 62.7152 75.7181 64.1591V64.1591V64.1591C76.1113 62.6858 75.2924 61.1689 73.845 60.6892L73.8135 60.6787L73.8456 60.6871C75.3225 61.0699 76.8523 60.2456 77.3451 58.8017V58.8017Z" fill="#8BEAFF"/>
<path d="M23.4531 84.1901C23.2057 84.1901 22.9954 84.2643 22.8223 84.4128C22.4017 82.8294 22.0553 80.5163 21.7832 77.4733C21.5111 74.4304 21.1771 72.1296 20.7812 70.571C20.0885 70.5215 18.7402 70.2617 16.7363 69.7917C14.7572 69.2969 13.3346 69.0495 12.4688 69.0495C11.8503 69.7422 10.3659 71.8822 8.01562 75.4694C7.32292 76.5085 6.4694 77.4486 5.45508 78.2897C4.46549 79.1061 3.48828 79.5143 2.52344 79.5143C2.4987 79.5143 2.47396 79.5143 2.44922 79.5143L0.667969 79.4772C0.420573 79.3288 0.296875 79.1556 0.296875 78.9577C0.296875 78.7598 0.420573 78.5866 0.667969 78.4382C0.915365 78.4877 1.28646 78.5124 1.78125 78.5124C2.30078 78.5124 3.0306 78.2526 3.9707 77.7331C4.93555 77.1888 5.91276 76.2982 6.90234 75.0612C8.51042 73.0821 10.0072 70.8431 11.3926 68.3444C11.2936 68.3197 11.0586 68.1712 10.6875 67.8991C10.3164 67.6022 10.0814 67.4167 9.98242 67.3425C9.9082 67.2435 9.64844 66.9837 9.20312 66.5632C8.75781 66.1426 8.36198 65.7591 8.01562 65.4128C7.07552 64.5222 6.55599 63.8542 6.45703 63.4089C6.45703 63.0873 6.55599 62.8893 6.75391 62.8151C6.97656 62.7409 7.21159 62.7038 7.45898 62.7038H7.9043C8.67122 62.7038 9.78451 62.9388 11.2441 63.4089C12.7038 63.8789 13.8047 64.114 14.5469 64.114C15.1406 63.3965 15.9941 61.64 17.1074 58.8444C18.2454 56.0241 19.0866 54.2429 19.6309 53.5007C20.2246 52.4369 20.6328 51.905 20.8555 51.905C20.9792 51.905 21.041 52.0781 21.041 52.4245V52.8327L21.8945 68.3444H22.2656C23.8242 67.6022 24.8014 67.2311 25.1973 67.2311C25.5931 67.2311 25.791 67.3301 25.791 67.528C25.791 67.8249 25.3952 68.2331 24.6035 68.7526C23.8118 69.2474 23.0326 69.569 22.2656 69.7175C22.2409 69.9649 22.2285 70.5215 22.2285 71.3874C22.2285 72.2285 22.4388 74.3932 22.8594 77.8815C23.2799 81.3698 23.4902 83.2871 23.4902 83.6335C23.515 84.0046 23.5026 84.1901 23.4531 84.1901ZM13.4707 68.0104C14.1387 68.1836 15.0664 68.3568 16.2539 68.53C17.4414 68.7031 18.196 68.8392 18.5176 68.9382C17.5775 67.627 16.3529 66.6127 14.8438 65.8952C14.819 65.9447 14.6953 66.1302 14.4727 66.4518C14.0026 67.0456 13.6686 67.5651 13.4707 68.0104ZM15.7715 64.819L20.5586 68.7155C20.5833 68.2207 20.5957 67.4662 20.5957 66.4518C20.5957 65.4128 20.5462 63.6192 20.4473 61.071C20.3483 58.5228 20.2246 56.556 20.0762 55.1706L15.7715 64.819ZM9.27734 63.78C9.12891 63.7552 8.99284 63.7429 8.86914 63.7429C8.49805 63.7429 8.3125 63.8666 8.3125 64.114C8.3125 64.6582 8.86914 65.3386 9.98242 66.155C11.1204 66.9714 11.9492 67.3796 12.4688 67.3796C12.5924 67.3796 12.7038 67.3548 12.8027 67.3054C12.9512 67.1322 13.0996 66.8353 13.248 66.4147C13.3965 65.9942 13.5944 65.586 13.8418 65.1901C13.6439 65.0912 12.1224 64.6211 9.27734 63.78ZM25.1602 76.2487C25.2591 73.4779 26.0508 70.1133 27.5352 66.155C29.0195 62.1966 30.2689 60.0443 31.2832 59.6979C31.5801 59.6979 31.7904 59.9824 31.9141 60.5515C32.0378 61.1205 32.0996 61.5905 32.0996 61.9616C32.0996 63.2975 31.8151 64.8809 31.2461 66.7116C30.6771 68.5176 30.0091 69.9772 29.2422 71.0905C28.9453 71.5853 28.5371 72.1048 28.0176 72.6491C27.5228 73.1934 27.1393 73.7005 26.8672 74.1706C26.6198 74.6159 26.4961 75.1849 26.4961 75.8776C26.4961 77.1146 26.8301 78.1289 27.498 78.9206C28.1908 79.7123 29.1556 80.1081 30.3926 80.1081C32.446 80.1081 33.7448 79.403 34.2891 77.9929H34.6973C34.6973 78.9577 34.2148 79.7246 33.25 80.2936C32.2852 80.8627 31.1966 81.1472 29.9844 81.1472C28.7721 81.1472 27.7331 80.6895 26.8672 79.7741C26.0013 78.834 25.4323 77.6589 25.1602 76.2487ZM31.1348 62.1843C30.9368 62.4069 30.6029 62.9265 30.1328 63.7429C29.6875 64.5593 29.4277 65.0912 29.3535 65.3386C27.696 69.668 26.8672 72.0059 26.8672 72.3522C27.9062 71.6348 28.8711 70.138 29.7617 67.862C30.6523 65.5612 31.11 63.6686 31.1348 62.1843ZM60.8223 78.0671C60.847 78.166 60.8594 78.2403 60.8594 78.2897C60.8594 78.8835 60.0553 79.4154 58.4473 79.8854C56.8639 80.3555 55.6641 80.5905 54.8477 80.5905C51.7799 80.5905 50.2461 79.1432 50.2461 76.2487C50.2461 75.4818 50.4316 74.3809 50.8027 72.946C51.1738 71.5111 51.3594 70.4225 51.3594 69.6804C49.8008 70.1752 48.1803 71.4987 46.498 73.6511C44.8158 75.7787 43.4922 77.931 42.5273 80.1081C42.3789 80.2565 42.181 80.3679 41.9336 80.4421C41.6862 80.5163 41.5007 80.5039 41.377 80.405C41.278 80.2813 41.2285 80.1205 41.2285 79.9225C41.2285 79.6999 41.3275 79.3288 41.5254 78.8093L43.8262 71.0905C43.7025 70.8926 43.5417 70.7936 43.3438 70.7936C42.7005 70.7936 41.5749 71.7709 39.9668 73.7253C39.5462 74.2201 38.6309 75.3828 37.2207 77.2136C35.4642 79.4401 34.3262 80.5534 33.8066 80.5534C33.7572 80.5534 33.6829 80.5163 33.584 80.4421C33.485 80.3431 33.4479 80.2689 33.4727 80.2194L36.1445 73.2429L37.8516 68.3815C37.9753 68.3321 38.0866 68.3073 38.1855 68.3073C38.5566 68.3073 38.7422 68.5176 38.7422 68.9382C38.7422 69.3587 38.6927 69.7917 38.5938 70.237C38.4948 70.6576 38.0742 71.8698 37.332 73.8737L42.9355 69.3464C43.4056 69.0742 43.7891 68.9382 44.0859 68.9382C44.6055 68.9382 44.8652 69.3464 44.8652 70.1628C44.8652 70.6328 44.7168 71.4987 44.4199 72.7604C44.1478 74.0222 43.9993 74.752 43.9746 74.9499C44.4199 74.5788 45.3477 73.6263 46.7578 72.0925C49.207 69.4453 50.9264 68.1218 51.916 68.1218C52.2624 68.1218 52.5592 68.2331 52.8066 68.4557C52.8066 69.2722 52.5592 70.4844 52.0645 72.0925C51.5697 73.7005 51.3223 75.0365 51.3223 76.1003C51.3223 78.3763 52.6087 79.5143 55.1816 79.5143C56.5671 79.5143 58.4473 79.0319 60.8223 78.0671ZM59.8574 76.6569C59.8327 76.4343 59.8203 76.224 59.8203 76.0261C59.8203 74.4427 60.3398 72.8099 61.3789 71.1276C62.4427 69.4453 63.8034 68.6042 65.4609 68.6042C65.7826 68.6042 66.0423 68.7031 66.2402 68.9011C66.4382 69.0742 66.5371 69.3835 66.5371 69.8288C66.5371 70.2494 66.4134 70.7565 66.166 71.3503C65.9434 71.9193 65.5846 72.5007 65.0898 73.0944C64.6198 73.6882 64.2116 74.1706 63.8652 74.5417C63.5189 74.9128 63.0241 75.3952 62.3809 75.989C61.7624 76.5827 61.3913 76.9414 61.2676 77.0651C61.2428 77.263 61.2305 77.3744 61.2305 77.3991C61.2305 78.0671 61.5521 78.5866 62.1953 78.9577C62.8385 79.3288 63.5065 79.5143 64.1992 79.5143C65.8568 79.5143 67.168 79.2175 68.1328 78.6237C69.1224 78.03 70.2604 77.028 71.5469 75.6179C71.7448 75.3705 71.8561 75.1725 71.8809 75.0241C71.9303 74.8757 72.0664 74.7149 72.2891 74.5417C72.5365 74.6406 72.6602 74.8757 72.6602 75.2468C72.4128 76.0137 71.918 76.8425 71.1758 77.7331C70.4336 78.599 69.5553 79.3412 68.541 79.9597C67.1309 80.7761 65.931 81.1843 64.9414 81.1843C63.9766 81.1843 63.0365 80.8503 62.1211 80.1823C61.2057 79.5143 60.4512 78.3392 59.8574 76.6569ZM65.5352 69.9772C64.4714 69.9772 63.4818 70.5462 62.5664 71.6843C61.651 72.8223 61.1934 73.9108 61.1934 74.9499C61.1934 75.2962 61.2181 75.5436 61.2676 75.6921C62.1829 75.1973 63.123 74.3561 64.0879 73.1686C65.0527 71.9564 65.5352 70.8926 65.5352 69.9772ZM72.4375 72.612L72.5859 72.1296C73.0807 70.5462 73.5013 69.7546 73.8477 69.7546C74.3424 69.7546 74.5898 69.9401 74.5898 70.3112C74.5898 70.3854 74.5775 70.4597 74.5527 70.5339C73.6126 72.8347 73.1426 75.0241 73.1426 77.1022C73.1426 78.0423 73.3776 78.834 73.8477 79.4772C74.3177 80.0957 75.0352 80.405 76 80.405C78.4245 79.4649 79.946 78.9948 80.5645 78.9948C80.7624 78.9948 80.8613 79.0443 80.8613 79.1432C80.8613 79.4401 80.2181 79.8731 78.9316 80.4421C77.6452 80.9863 76.6309 81.2585 75.8887 81.2585C75.1712 81.2585 74.627 81.1966 74.2559 81.0729C73.8848 80.974 73.6126 80.875 73.4395 80.7761C73.2663 80.6771 73.056 80.4668 72.8086 80.1452C72.5612 79.7988 72.4004 79.3535 72.3262 78.8093C72.252 78.2403 72.2148 77.4362 72.2148 76.3972C72.2148 75.3581 72.2891 74.0964 72.4375 72.612ZM79.748 77.6589C80.2428 76.0261 80.7747 74.7149 81.3438 73.7253C81.9375 72.7357 82.6426 72.0306 83.459 71.61C84.2754 71.1647 85.0176 70.8926 85.6855 70.7936C86.3535 70.6699 87.2812 70.6081 88.4688 70.6081C88.543 70.3112 88.6667 69.7298 88.8398 68.864C89.013 67.9733 89.1367 67.3796 89.2109 67.0827C89.3099 66.7611 89.446 66.2787 89.6191 65.6354C89.916 64.5716 90.2129 63.7676 90.5098 63.2233C90.8314 62.6543 91.0293 62.2956 91.1035 62.1472C91.1777 61.9987 91.2272 61.8998 91.252 61.8503C91.3014 61.7761 91.3633 61.7018 91.4375 61.6276C91.5365 61.5287 91.6973 61.4792 91.9199 61.4792C92.6868 61.4792 93.0703 62.2956 93.0703 63.9284V64.2624C93.0703 65.5488 92.526 67.3301 91.4375 69.6061C90.349 71.8574 89.8047 73.5768 89.8047 74.7643C89.8047 77.4115 90.5221 78.735 91.957 78.735C92.4271 78.735 93.0703 78.5495 93.8867 78.1784C94.7031 77.8073 95.3464 77.6218 95.8164 77.6218L96.1875 77.6589C95.7669 78.3021 95.1361 78.8093 94.2949 79.1804C93.4785 79.5515 92.7982 79.737 92.2539 79.737C91.7344 79.737 91.3757 79.7246 91.1777 79.6999C90.9798 79.6752 90.7943 79.6257 90.6211 79.5515C90.4479 79.4525 90.2995 79.3783 90.1758 79.3288C90.0768 79.2793 89.9531 79.168 89.8047 78.9948C89.681 78.7969 89.582 78.6608 89.5078 78.5866C89.4583 78.5124 89.3717 78.3392 89.248 78.0671C89.1243 77.7949 89.0378 77.6218 88.9883 77.5475C88.9635 77.4733 88.877 77.263 88.7285 76.9167C88.6048 76.5703 88.5182 76.3477 88.4688 76.2487C88.3945 76.3229 88.11 76.6322 87.6152 77.1765C87.1204 77.696 86.7741 78.0547 86.5762 78.2526C86.3783 78.4258 86.0319 78.7227 85.5371 79.1432C85.0671 79.5638 84.6712 79.8607 84.3496 80.0339C83.4342 80.5287 82.6178 80.7761 81.9004 80.7761C81.2077 80.7761 80.7005 80.6153 80.3789 80.2936C80.082 79.9473 79.8965 79.5886 79.8223 79.2175C79.7728 78.8216 79.748 78.3021 79.748 77.6589ZM86.4648 71.9811C85.0794 71.9811 83.8301 72.6244 82.7168 73.9108C81.6283 75.1973 81.084 76.4961 81.084 77.8073C81.084 79.0938 81.4303 79.737 82.123 79.737C83.0879 79.737 84.3249 79.0072 85.834 77.5475C87.3678 76.0632 88.1348 74.8015 88.1348 73.7624C88.1348 73.1439 87.9987 72.6986 87.7266 72.4265C87.4792 72.1296 87.0586 71.9811 86.4648 71.9811ZM91.9941 63.2604C91.3509 64.1511 90.819 65.3509 90.3984 66.86C90.0026 68.3444 89.8047 69.5938 89.8047 70.6081C89.8047 70.6576 89.8171 70.7689 89.8418 70.9421L90.1758 70.6081C90.4727 70.3112 91.0788 68.5547 91.9941 65.3386L92.0312 64.8932C92.0312 64.5964 92.0312 64.4108 92.0312 64.3366C92.0312 64.2624 92.0189 64.0768 91.9941 63.78C91.9941 63.4831 91.9941 63.3099 91.9941 63.2604ZM104.389 71.1276C103.671 72.9584 103.312 74.6654 103.312 76.2487C103.312 78.8711 104.735 80.1823 107.58 80.1823C108.298 80.0834 108.829 79.9349 109.176 79.737C109.547 79.5391 109.943 79.2051 110.363 78.735C110.784 78.2403 111.192 77.8321 111.588 77.5104H111.773C111.65 78.8959 111.167 79.836 110.326 80.3307C109.51 80.8008 108.384 81.0358 106.949 81.0358C103.857 81.0358 102.187 79.737 101.939 77.1393C101.816 77.7826 101.247 78.5371 100.232 79.403C99.2428 80.2442 98.3522 80.6647 97.5605 80.6647C97.5111 80.6647 97.4492 80.6647 97.375 80.6647C95.8411 80.2442 95.0742 79.3288 95.0742 77.9186C95.0742 76.0879 96.0267 74.3067 97.9316 72.5749C99.416 71.2142 100.863 70.5339 102.273 70.5339C103.065 70.5339 103.77 70.7318 104.389 71.1276ZM96.2246 77.7331C96.2246 78.1289 96.237 78.4505 96.2617 78.6979C96.3112 78.9206 96.4349 79.1309 96.6328 79.3288C96.8555 79.5267 97.1647 79.6257 97.5605 79.6257C98.6491 79.5762 99.7376 78.7103 100.826 77.028C101.939 75.321 102.533 73.8613 102.607 72.6491C102.212 72.1543 101.667 71.9069 100.975 71.9069C100.084 71.9069 99.1562 72.4759 98.1914 73.614C97.2266 74.752 96.571 76.125 96.2246 77.7331Z" fill="white"/>
<path d="M117.12 80.12C116.773 80.12 116.48 80 116.24 79.76C116 79.52 115.88 79.2267 115.88 78.88C115.88 78.5333 116 78.24 116.24 78C116.48 77.76 116.773 77.64 117.12 77.64C117.453 77.64 117.733 77.76 117.96 78C118.2 78.24 118.32 78.5333 118.32 78.88C118.32 79.2267 118.2 79.52 117.96 79.76C117.733 80 117.453 80.12 117.12 80.12Z" fill="#8BEAFF"/>
</svg>
